<svg width="670" height="400" viewBox="0 0 670 400" fill="none" xmlns="http://www.w3.org/2000/svg">
<g clip-path="url(#clip0_342:2)">
<path d="M669.523 371.944H0V373.232H669.523V371.944Z" fill="#3F3D56"/>
<path d="M379.63 105.734H417.924V49.9272L379.63 49.9272V105.734Z" fill="#2F2E41"/>
<path d="M410.523 75.6703C410.523 75.6703 409.083 103.222 421.822 104.352C430.736 105.143 404.439 129.557 404.439 129.557L381.841 98.2681C381.841 98.2681 398.781 100.003 387.925 80.8852L410.523 75.6703Z" fill="#FFB8B8"/>
<path opacity="0.1" d="M381.84 98.2709L388.981 108.161L404.44 129.557C404.44 129.557 417.35 117.568 422.012 110.125C423.763 107.324 424.355 105.167 422.656 104.529C422.648 104.524 422.639 104.522 422.63 104.523C422.386 104.432 422.13 104.375 421.87 104.356C421.855 104.352 421.84 104.35 421.825 104.349C421.083 104.287 420.352 104.122 419.655 103.86C409.25 99.9708 410.525 75.6708 410.525 75.6708L387.925 80.8862C395.168 93.6415 390.037 97.1184 385.819 98.0134C384.894 98.2064 383.951 98.3056 383.006 98.3096C382.291 98.316 381.84 98.2709 381.84 98.2709Z" fill="black"/>
<path d="M375.198 53.0416C379.335 65.2915 385.679 76.453 398.609 76.453C411.539 76.453 421.292 65.9507 422.02 53.0416C422.951 36.5462 411.837 29.5619 398.609 29.6303C382.982 29.7109 370.287 38.504 375.198 53.0416Z" fill="#2F2E41"/>
<path d="M430.514 252.108L424.43 294.696C424.43 294.696 429.645 320.77 427.037 339.022L424.43 358.144H412.262L408.785 338.153C408.785 338.153 405.308 317.294 405.308 307.733C405.308 307.733 395.748 264.276 401.832 255.584L430.514 252.108Z" fill="#FFB8B8"/>
<path d="M356.636 249.5L362.72 294.696C362.72 294.696 357.505 320.77 360.113 339.022L362.72 358.144H374.888L378.365 338.153C378.365 338.153 381.841 317.294 381.841 307.733C381.841 307.733 391.402 261.668 385.318 252.977L356.636 249.5Z" fill="#FFB8B8"/>
<path d="M368.804 355.536C368.804 355.536 361.851 352.929 360.982 356.405C360.113 359.882 358.374 378.134 358.374 378.134C358.374 378.134 353.159 385.956 349.683 386.826C346.206 387.695 338.384 398.994 347.945 399.863C357.505 400.732 367.066 397.255 367.066 395.517C367.066 393.779 370.542 392.91 372.281 392.91C374.019 392.91 380.103 390.302 379.234 387.695C378.365 385.087 375.757 354.667 375.757 354.667L368.804 355.536Z" fill="#2F2E41"/>
<path d="M418.346 355.536C418.346 355.536 425.299 352.929 426.168 356.405C427.037 359.882 428.775 378.134 428.775 378.134C428.775 378.134 433.99 385.956 437.467 386.826C440.944 387.695 448.766 398.994 439.205 399.863C429.645 400.732 420.084 397.255 420.084 395.517C420.084 393.779 416.607 392.91 414.869 392.91C413.131 392.91 407.047 390.302 407.916 387.695C408.785 385.087 411.392 354.667 411.392 354.667L418.346 355.536Z" fill="#2F2E41"/>
<path d="M397.486 85.8698C407.439 85.8698 415.508 77.8012 415.508 67.8479C415.508 57.8947 407.439 49.826 397.486 49.826C387.533 49.826 379.464 57.8947 379.464 67.8479C379.464 77.8012 387.533 85.8698 397.486 85.8698Z" fill="#FFB8B8"/>
<path d="M329.692 166.928C329.692 166.928 366.194 182.574 369.671 166.059C371.809 155.737 373.261 145.286 374.017 134.772C374.02 134.769 374.025 134.767 374.03 134.766C374.539 134.457 392.522 123.421 388.981 108.161C388.156 104.855 386.608 101.774 384.448 99.1402C384.448 99.1402 383.913 98.7925 383.006 98.3096C381.941 97.7412 380.842 97.2401 379.715 96.8094C373.579 94.4721 363.374 93.1522 360.985 108.695C357.508 131.296 357.508 155.634 357.508 155.634C357.508 155.634 347.077 161.719 333.169 155.634C319.261 149.55 305.354 153.026 304.484 160.85C303.615 168.666 329.692 166.928 329.692 166.928Z" fill="#FFB8B8"/>
<path d="M421.825 104.349L422.012 110.125L424.085 175.234L424.433 186.051L454.85 219.951C454.85 219.951 460.934 238.199 473.973 240.806C487.011 243.414 465.28 215.605 465.28 215.605L435.726 172.143L435.681 170.682C435.348 158.504 436.363 146.327 438.708 134.373C439.575 129.924 439.742 125.366 439.203 120.865C437.993 111.168 430.015 106.963 425.302 105.309C424.436 104.998 423.552 104.738 422.656 104.529C422.648 104.524 422.639 104.522 422.63 104.523C422.237 104.426 421.973 104.375 421.87 104.356C421.855 104.352 421.84 104.35 421.825 104.349Z" fill="#FFB8B8"/>
<path d="M373.148 166.928V170.405C385.819 185.89 413.867 178.576 424.085 175.234C426.487 174.448 427.903 173.882 427.903 173.882C427.383 172.793 427.087 171.61 427.034 170.405V162.588C427.034 159.98 426.171 161.719 425.302 160.85C424.433 159.98 427.903 154.765 427.903 154.765C436.596 149.549 431.38 134.772 431.38 134.772L425.302 121.734V105.309C424.436 104.998 423.552 104.738 422.656 104.529C422.648 104.524 422.639 104.522 422.63 104.523C422.386 104.432 422.13 104.375 421.87 104.356C421.855 104.352 421.84 104.35 421.825 104.349C421.083 104.287 420.352 104.122 419.655 103.86C418.026 107.221 414.485 111.644 407.048 112.172C398.143 112.81 389.702 103.209 385.819 98.0134C384.894 98.2064 383.951 98.3056 383.006 98.3096C381.941 97.7412 380.842 97.2401 379.715 96.8093L383.579 113.042C386.998 121.586 374.461 134.322 374.03 134.766C374.025 134.767 374.02 134.769 374.017 134.772V144.334L374.886 154.765L375.755 157.373L374.017 159.98L374.886 162.588L374.017 164.327C373.148 166.059 373.148 165.196 373.148 166.928Z" fill="#C7C7C7"/>
<path d="M426.168 173.015L428.775 172.146C428.775 172.146 460.065 250.369 439.205 253.846C418.346 257.322 402.701 263.406 399.224 257.322C395.748 251.238 397.486 229.51 397.486 229.51L394.009 228.64C394.009 228.64 400.094 260.799 387.925 258.192C375.757 255.584 341.861 251.238 341.861 247.762C341.861 244.285 373.15 169.2 373.15 169.2C373.15 169.2 386.187 177.361 426.168 173.015Z" fill="#2F2E41"/>
<path d="M398.609 34.5588C403.713 34.5588 407.85 30.4213 407.85 25.3175C407.85 20.2137 403.713 16.0762 398.609 16.0762C393.505 16.0762 389.368 20.2137 389.368 25.3175C389.368 30.4213 393.505 34.5588 398.609 34.5588Z" fill="#2F2E41"/>
<path d="M409.698 20.389C409.698 18.0982 408.847 15.889 407.31 14.1901C405.774 12.4911 403.661 11.4235 401.381 11.1944C401.685 11.1642 401.993 11.1477 402.305 11.1477C403.519 11.1477 404.721 11.3867 405.842 11.8512C406.963 12.3156 407.982 12.9963 408.84 13.8544C409.698 14.7126 410.379 15.7313 410.843 16.8525C411.308 17.9737 411.547 19.1754 411.547 20.389C411.547 21.6026 411.308 22.8043 410.843 23.9255C410.379 25.0467 409.698 26.0655 408.84 26.9236C407.982 27.7818 406.963 28.4625 405.842 28.9269C404.721 29.3913 403.519 29.6303 402.305 29.6303C401.993 29.6303 401.685 29.6139 401.381 29.5837C403.661 29.3545 405.774 28.2869 407.31 26.588C408.847 24.8891 409.698 22.6799 409.698 20.389Z" fill="#2F2E41"/>
<path d="M406.05 44.6419C406.05 44.6419 406.243 43.5677 413.79 46.3978C421.337 49.2279 425.861 70.1128 422.088 82.3765C420.567 87.3188 421.804 90.8822 423.823 93.3753C431.4 102.731 428.417 116.784 417.381 121.595C417.07 121.731 416.752 121.865 416.427 121.998L411.711 124.828C411.711 124.828 417.724 116.916 414.714 106.796C412.101 98.1724 411.779 89.0175 413.778 80.2317C414.123 78.7496 414.515 77.2219 414.961 75.6628C418.734 62.4557 416.899 63.9809 403.692 50.7738C403.692 50.7738 396.145 56.4339 389.542 59.264C382.938 62.0941 377.278 64.9242 381.995 74.3579C386.711 83.7915 398.032 92.2819 390.485 104.546C382.938 116.809 381.995 112.093 382.938 116.809L383.881 121.526L378.221 115.866L381.995 123.413C381.995 123.413 369.731 123.413 365.957 113.979L364.071 115.866C364.071 115.866 356.524 102.659 370.674 90.3951C370.674 90.3951 375.391 87.565 368.788 78.1314C362.184 68.6977 367.256 48.4154 375.746 44.6419C384.236 40.8685 406.05 44.6419 406.05 44.6419Z" fill="#2F2E41"/>
<path d="M313.442 86.1253V128.415C313.441 128.806 313.285 129.18 313.009 129.457C312.733 129.733 312.358 129.889 311.968 129.89H310.918V350.193C310.918 356.289 308.496 362.136 304.185 366.447C299.874 370.757 294.028 373.179 287.932 373.18H150.277C147.258 373.179 144.27 372.584 141.482 371.429C138.693 370.274 136.16 368.58 134.026 366.446C131.892 364.311 130.199 361.777 129.045 358.989C127.89 356.2 127.296 353.211 127.297 350.193V137.616H126.537C126.261 137.617 125.997 137.508 125.801 137.314C125.606 137.119 125.495 136.855 125.494 136.58V112.511C125.494 112.374 125.521 112.239 125.573 112.112C125.626 111.986 125.702 111.871 125.799 111.774C125.896 111.677 126.011 111.6 126.138 111.548C126.264 111.495 126.4 111.468 126.537 111.468H127.297V102.403H126.53C126.241 102.401 125.964 102.286 125.76 102.08C125.556 101.875 125.442 101.597 125.442 101.308V77.5681C125.443 77.2798 125.558 77.0034 125.762 76.7995C125.966 76.5956 126.242 76.4807 126.53 76.48H127.297V64.1046H126.518C126.391 64.1048 126.265 64.0799 126.148 64.0314C126.03 63.983 125.924 63.9118 125.834 63.8221C125.744 63.7324 125.673 63.6259 125.625 63.5086C125.576 63.3913 125.552 63.2657 125.552 63.1388V50.1839C125.551 49.927 125.652 49.6804 125.834 49.4981C126.015 49.3158 126.261 49.2128 126.518 49.2117H127.297V22.9801C127.297 16.8854 129.718 11.0405 134.028 6.73094C138.337 2.4214 144.182 0.000221983 150.277 2.35194e-10H287.932C294.027 -2.75525e-05 299.873 2.42086 304.183 6.73028C308.494 11.0397 310.916 16.8848 310.918 22.9801V84.6508H311.968C312.358 84.6518 312.733 84.8075 313.009 85.0838C313.285 85.3601 313.441 85.7345 313.442 86.1253Z" fill="#3F3D56"/>
<path d="M225.736 11.7874H203.368C202.464 11.7874 201.731 12.5201 201.731 13.424V15.3574C201.731 16.2613 202.464 16.994 203.368 16.994H225.736C226.64 16.994 227.373 16.2613 227.373 15.3574V13.424C227.373 12.5201 226.64 11.7874 225.736 11.7874Z" fill="#E6E8EC"/>
<path d="M234.203 17.344C235.834 17.344 237.156 16.0218 237.156 14.3907C237.156 12.7597 235.834 11.4375 234.203 11.4375C232.572 11.4375 231.25 12.7597 231.25 14.3907C231.25 16.0218 232.572 17.344 234.203 17.344Z" fill="#E6E8EC"/>
<path d="M299.911 27.5258V352.099C299.909 355.966 298.372 359.673 295.637 362.407C292.902 365.141 289.194 366.676 285.327 366.676H153.557C151.642 366.68 149.744 366.305 147.974 365.574C146.203 364.842 144.595 363.769 143.24 362.415C141.885 361.06 140.811 359.452 140.079 357.682C139.346 355.912 138.971 354.014 138.973 352.099V27.5258C138.973 25.6106 139.35 23.7141 140.083 21.9447C140.816 20.1752 141.89 18.5675 143.245 17.2132C144.599 15.859 146.207 14.7847 147.976 14.0519C149.746 13.319 151.642 12.9418 153.557 12.9419H173.279V15.4723C173.279 18.6572 174.544 21.7115 176.796 23.9635C179.048 26.2155 182.103 27.4807 185.288 27.4807H252.303C255.487 27.4807 258.542 26.2155 260.794 23.9635C263.046 21.7115 264.311 18.6572 264.311 15.4723V12.9419H285.327C287.243 12.9413 289.139 13.3181 290.909 14.0508C292.679 14.7835 294.287 15.8577 295.641 17.212C296.995 18.5664 298.069 20.1743 298.802 21.944C299.535 23.7137 299.912 25.6104 299.911 27.5258Z" fill="#F9F9F9"/>
<path opacity="0.2" d="M294.786 119.343H145.406V192.102H294.786V119.343Z" fill="black"/>
<path d="M637.112 181.033H487.732V253.791H637.112V181.033Z" fill="#F2F2F2"/>
<path d="M294.786 229.626H145.406V302.385H294.786V229.626Z" fill="#3F3D56"/>
<path d="M279.333 65.4373C286.445 65.4373 292.21 59.6718 292.21 52.5597C292.21 45.4476 286.445 39.6821 279.333 39.6821C272.221 39.6821 266.455 45.4476 266.455 52.5597C266.455 59.6718 272.221 65.4373 279.333 65.4373Z" fill="white"/>
<path d="M285.128 52.1459H279.746V46.765H278.919V52.1459H273.538V52.9739H278.919V58.3548H279.746V52.9739H285.128V52.1459Z" fill="#3F3D56"/>
<path d="M620.371 171.375H470.991V244.133H620.371V171.375Z" fill="#3F3D56"/>
<path d="M537.676 220.226C541.586 234.681 554.98 243.634 554.98 243.634C554.98 243.634 562.034 229.15 558.123 214.695C554.213 200.239 540.819 191.287 540.819 191.287C540.819 191.287 533.765 205.771 537.676 220.226Z" fill="white"/>
<path d="M543.422 217.119C554.152 227.565 555.462 243.622 555.462 243.622C555.462 243.622 539.376 242.743 528.646 232.298C517.916 221.853 516.605 205.796 516.605 205.796C516.605 205.796 532.691 206.674 543.422 217.119Z" fill="#FC8018"/>
<path d="M205.55 279.586C209.46 294.041 222.854 302.993 222.854 302.993C222.854 302.993 229.908 288.509 225.998 274.054C222.087 259.599 208.693 250.647 208.693 250.647C208.693 250.647 201.639 265.131 205.55 279.586Z" fill="white"/>
<path d="M211.296 276.479C222.026 286.925 223.336 302.982 223.336 302.982C223.336 302.982 207.25 302.103 196.52 291.658C185.79 281.212 184.479 265.156 184.479 265.156C184.479 265.156 200.566 266.034 211.296 276.479Z" fill="#FC8018"/>
<path d="M241.123 279.586C237.213 294.041 223.819 302.993 223.819 302.993C223.819 302.993 216.765 288.509 220.675 274.054C224.586 259.599 237.98 250.647 237.98 250.647C237.98 250.647 245.034 265.131 241.123 279.586Z" fill="white"/>
<path d="M235.377 276.479C224.647 286.925 223.336 302.982 223.336 302.982C223.336 302.982 239.423 302.103 250.153 291.658C260.883 281.212 262.194 265.156 262.194 265.156C262.194 265.156 246.107 266.034 235.377 276.479Z" fill="#FC8018"/>
<path d="M326.98 107.754H177.6V180.512H326.98V107.754Z" fill="#3F3D56"/>
<path d="M253.029 132.7H251.741V180.612H253.029V132.7Z" fill="white"/>
<path d="M252.385 141.008C256.127 141.008 259.16 137.975 259.16 134.233C259.16 130.491 256.127 127.457 252.385 127.457C248.643 127.457 245.609 130.491 245.609 134.233C245.609 137.975 248.643 141.008 252.385 141.008Z" fill="#FC8018"/>
<path d="M252.385 162.229C252.385 162.229 251.417 141.411 231.575 143.831L252.385 162.229Z" fill="white"/>
</g>
<defs>
<clipPath id="clip0_342:2">
<rect width="669.523" height="400" fill="white"/>
</clipPath>
</defs>
</svg>
