<svg width="246" height="132" viewBox="0 0 246 132" fill="none" xmlns="http://www.w3.org/2000/svg">
<path d="M2.904 77.864C2.568 77.768 2.232 77.576 1.896 77.288C1.512 76.952 1.224 76.592 1.032 76.208C0.791999 75.824 0.719999 75.44 0.815999 75.056C0.863999 74.672 1.152 74.384 1.68 74.192C3.024 73.328 5.232 72.392 8.304 71.384C11.328 70.376 14.784 69.392 18.672 68.432C18.576 62.528 18.576 55.832 18.672 48.344C18.816 40.856 19.2 32.336 19.824 22.784C19.776 22.352 19.992 22.088 20.472 21.992C21 21.896 21.648 21.944 22.416 22.136C23.184 22.28 24 22.544 24.864 22.928C25.776 23.264 26.592 23.672 27.312 24.152C28.032 24.632 28.608 25.112 29.04 25.592C29.52 26.072 29.688 26.528 29.544 26.96C28.824 34.496 28.248 41.504 27.816 47.984C27.384 54.416 27.048 60.632 26.808 66.632C30.888 65.768 35.016 64.976 39.192 64.256C43.368 63.536 47.256 62.984 50.856 62.6L51 59.216C51.144 56.288 51.336 53.096 51.576 49.64C51.864 46.184 52.176 42.632 52.512 38.984C52.848 35.336 53.208 31.688 53.592 28.04C53.976 24.392 54.384 20.912 54.816 17.6C55.296 14.288 55.776 11.216 56.256 8.384C56.736 5.504 57.24 3.032 57.768 0.967992C57.72 0.535995 57.936 0.295995 58.416 0.247993C58.944 0.151994 59.592 0.199996 60.36 0.391999C61.128 0.583997 61.944 0.871996 62.808 1.256C63.72 1.64 64.536 2.072 65.256 2.552C65.976 3.032 66.552 3.536 66.984 4.064C67.416 4.592 67.584 5.04799 67.488 5.43199C66.48 9.46399 65.544 13.808 64.68 18.464C63.816 23.12 63 27.896 62.232 32.792C61.512 37.688 60.864 42.608 60.288 47.552C59.76 52.496 59.328 57.272 58.992 61.88C60.576 61.784 61.944 61.784 63.096 61.88C64.248 61.928 65.088 62.048 65.616 62.24C66.576 62.768 67.032 63.512 66.984 64.472C66.936 65.384 66.624 66.272 66.048 67.136C65.472 68 64.728 68.72 63.816 69.296C62.904 69.824 62.064 69.944 61.296 69.656L58.488 69.44C58.344 71.888 58.2 74.552 58.056 77.432C57.912 80.312 57.768 83.264 57.624 86.288C57.528 89.264 57.432 92.264 57.336 95.288C57.24 98.264 57.168 101.096 57.12 103.784C57.072 106.424 57.048 108.824 57.048 110.984C57.048 113.144 57.096 114.92 57.192 116.312C57.096 117.128 56.688 117.608 55.968 117.752C55.296 117.896 54.552 117.8 53.736 117.464C52.92 117.176 52.176 116.696 51.504 116.024C50.88 115.4 50.592 114.68 50.64 113.864C50.544 110.792 50.472 107.432 50.424 103.784C50.376 100.136 50.328 96.368 50.28 92.48C50.28 88.592 50.304 84.68 50.352 80.744C50.4 76.76 50.472 72.944 50.568 69.296C46.68 69.392 42.672 69.656 38.544 70.088C34.416 70.52 30.432 71.072 26.592 71.744C26.496 75.632 26.448 79.472 26.448 83.264C26.448 87.008 26.472 90.728 26.52 94.424C26.424 95.24 26.016 95.744 25.296 95.936C24.624 96.08 23.88 96.008 23.064 95.72C22.296 95.432 21.576 94.976 20.904 94.352C20.232 93.728 19.896 93.008 19.896 92.192C19.656 89.888 19.44 87.176 19.248 84.056C19.056 80.888 18.912 77.264 18.816 73.184C15.216 73.952 12.048 74.744 9.312 75.56C6.528 76.328 4.392 77.096 2.904 77.864ZM95.3807 100.256C94.7087 100.352 94.0367 100.28 93.3647 100.04C92.6927 99.8 92.0207 99.464 91.3487 99.032C89.8127 100.616 88.1807 101.864 86.4527 102.776C84.7247 103.64 83.2847 104.144 82.1327 104.288C81.6527 104.384 81.0767 104.288 80.4047 104C79.7807 103.712 79.1327 103.352 78.4607 102.92C77.8367 102.44 77.2127 101.936 76.5887 101.408C75.9167 100.832 75.3407 100.28 74.8607 99.752C74.0447 98.984 73.4207 98.024 72.9887 96.872C72.5087 95.72 72.1727 94.52 71.9807 93.272C71.7887 91.976 71.7647 90.704 71.9087 89.456C72.0047 88.208 72.2447 87.104 72.6287 86.144C73.3487 84.224 74.2847 82.496 75.4367 80.96C76.5407 79.424 77.7167 78.128 78.9647 77.072C80.2607 75.968 81.5807 75.152 82.9247 74.624C84.2687 74.048 85.5167 73.832 86.6687 73.976C87.3407 74.072 88.1567 74.408 89.1167 74.984C90.0767 75.56 91.0127 76.328 91.9247 77.288C92.8847 78.248 93.7487 79.376 94.5167 80.672C95.3327 81.968 95.9087 83.36 96.2447 84.848C96.5807 86.336 96.6767 87.752 96.5327 89.096C96.3887 90.392 96.0767 91.664 95.5967 92.912H96.4607C96.9407 92.864 97.4447 92.624 97.9727 92.192C98.5007 91.712 98.9807 91.16 99.4127 90.536C99.8927 89.912 100.325 89.24 100.709 88.52C101.141 87.752 101.501 87.008 101.789 86.288C102.077 85.568 102.437 85.112 102.869 84.92C103.349 84.68 103.781 84.656 104.165 84.848C104.597 85.04 104.909 85.424 105.101 86C105.293 86.576 105.269 87.296 105.029 88.16C104.645 89.456 104.141 90.824 103.517 92.264C102.893 93.656 102.149 94.952 101.285 96.152C100.469 97.304 99.5567 98.288 98.5487 99.104C97.5407 99.872 96.4847 100.256 95.3807 100.256ZM79.2527 96.44C80.0687 96.2 81.0767 95.72 82.2767 95C83.4767 94.232 84.7007 93.296 85.9487 92.192C85.4207 90.992 85.0127 89.744 84.7247 88.448C84.4367 87.104 84.3167 85.808 84.3647 84.56C84.4127 83.84 84.5087 83.168 84.6527 82.544C84.8447 81.92 85.1567 81.344 85.5887 80.816C84.6287 81.44 83.6687 82.256 82.7087 83.264C81.7967 84.272 80.9567 85.376 80.1887 86.576C79.4207 87.776 78.7487 89.024 78.1727 90.32C77.6447 91.568 77.2847 92.768 77.0927 93.92C77.0927 93.968 77.1167 94.16 77.1647 94.496C77.2607 94.784 77.3807 95.096 77.5247 95.432C77.7167 95.768 77.9567 96.056 78.2447 96.296C78.5327 96.488 78.8687 96.536 79.2527 96.44ZM92.0687 81.752C92.0207 81.224 91.8527 80.744 91.5647 80.312C91.2767 79.88 90.7487 79.616 89.9807 79.52C89.8847 79.568 89.7887 79.592 89.6927 79.592C89.4527 79.688 89.1407 79.976 88.7567 80.456C88.4207 80.936 88.1567 81.56 87.9647 82.328C87.8207 83.096 87.7967 83.96 87.8927 84.92C88.0367 85.88 88.4687 86.864 89.1887 87.872L89.4767 88.376C90.2927 87.272 90.9407 86.168 91.4207 85.064C91.9487 83.912 92.1647 82.808 92.0687 81.752ZM110.293 78.8C110.245 80.624 110.101 82.472 109.861 84.344C109.621 86.216 109.381 87.92 109.141 89.456C108.949 90.992 108.781 92.264 108.637 93.272C108.541 94.232 108.613 94.76 108.853 94.856C108.949 94.856 109.141 94.472 109.429 93.704C109.765 92.936 110.125 91.952 110.509 90.752C110.941 89.552 111.397 88.232 111.877 86.792C112.357 85.304 112.861 83.84 113.389 82.4C113.965 80.912 114.517 79.544 115.045 78.296C115.573 77 116.101 75.968 116.629 75.2C116.917 74.72 117.349 74.36 117.925 74.12C118.501 73.832 119.101 73.688 119.725 73.688C120.349 73.64 120.949 73.736 121.525 73.976C122.101 74.168 122.557 74.504 122.893 74.984C123.613 76.04 124.189 77.264 124.621 78.656C125.101 80 125.485 81.392 125.773 82.832C126.109 84.272 126.373 85.688 126.565 87.08C126.805 88.472 127.045 89.744 127.285 90.896C127.525 92 127.765 92.936 128.005 93.704C128.293 94.424 128.677 94.832 129.157 94.928C129.349 95.024 129.589 94.712 129.877 93.992C130.213 93.224 130.573 92.24 130.957 91.04C131.341 89.792 131.749 88.424 132.181 86.936C132.613 85.4 133.069 83.888 133.549 82.4C134.029 80.912 134.509 79.544 134.989 78.296C135.469 77 135.949 75.968 136.429 75.2C136.717 74.72 137.149 74.36 137.725 74.12C138.301 73.832 138.901 73.688 139.525 73.688C140.197 73.64 140.821 73.736 141.397 73.976C141.973 74.168 142.429 74.504 142.765 74.984C143.581 76.232 144.397 77.648 145.213 79.232C146.029 80.816 146.821 82.448 147.589 84.128C148.405 85.76 149.173 87.392 149.893 89.024C150.661 90.608 151.381 92.024 152.053 93.272C152.773 94.472 153.445 95.456 154.069 96.224C154.741 96.944 155.365 97.28 155.941 97.232C156.373 97.28 156.877 96.992 157.453 96.368C158.077 95.696 158.701 94.856 159.325 93.848C159.997 92.792 160.645 91.616 161.269 90.32C161.893 88.976 162.469 87.632 162.997 86.288C163.285 85.52 163.645 85.04 164.077 84.848C164.557 84.608 164.989 84.608 165.373 84.848C165.805 85.04 166.117 85.424 166.309 86C166.549 86.576 166.525 87.296 166.237 88.16C165.757 89.936 165.157 91.736 164.437 93.56C163.765 95.336 162.973 96.944 162.061 98.384C161.149 99.824 160.117 101 158.965 101.912C157.813 102.776 156.541 103.136 155.149 102.992C154.333 102.944 153.445 102.632 152.485 102.056C151.573 101.432 150.637 100.664 149.677 99.752C148.717 98.792 147.733 97.736 146.725 96.584C145.765 95.432 144.877 94.28 144.061 93.128C143.245 91.976 142.501 90.896 141.829 89.888C141.157 88.832 140.653 87.968 140.317 87.296C140.221 87.056 140.005 86.936 139.669 86.936C139.333 86.888 139.021 87.128 138.733 87.656C138.061 88.76 137.365 90.2 136.645 91.976C135.925 93.704 135.109 95.384 134.197 97.016C133.333 98.648 132.373 100.064 131.317 101.264C130.261 102.416 129.109 102.992 127.861 102.992C126.661 102.944 125.701 102.296 124.981 101.048C124.261 99.8 123.661 98.336 123.181 96.656C122.701 94.928 122.269 93.2 121.885 91.472C121.501 89.696 121.045 88.304 120.517 87.296C120.373 87.056 120.133 86.936 119.797 86.936C119.509 86.888 119.221 87.128 118.933 87.656C118.309 88.712 117.589 90.104 116.773 91.832C116.005 93.512 115.141 95.192 114.181 96.872C113.221 98.504 112.213 99.92 111.157 101.12C110.101 102.32 109.021 102.92 107.917 102.92C106.669 102.92 105.685 102.488 104.965 101.624C104.197 100.76 103.621 99.608 103.237 98.168C102.853 96.728 102.613 95.072 102.517 93.2C102.421 91.328 102.397 89.384 102.445 87.368C102.445 85.352 102.469 83.336 102.517 81.32C102.517 79.304 102.445 77.432 102.301 75.704C102.349 74.648 102.829 74.048 103.741 73.904C104.605 73.712 105.541 73.808 106.549 74.192C107.557 74.576 108.445 75.2 109.213 76.064C110.029 76.88 110.389 77.792 110.293 78.8ZM162.972 92.48C162.444 89.84 162.636 87.392 163.548 85.136C164.412 82.832 165.612 80.84 167.148 79.16C168.636 77.432 170.244 76.064 171.972 75.056C173.7 74.048 175.14 73.472 176.292 73.328C176.964 73.28 177.828 73.4 178.884 73.688C179.988 73.928 181.068 74.336 182.124 74.912C183.18 75.44 184.116 76.088 184.932 76.856C185.748 77.624 186.228 78.512 186.372 79.52C186.468 80.096 186.3 80.912 185.868 81.968C185.484 82.976 184.932 84.008 184.212 85.064C183.492 86.12 182.7 87.104 181.836 88.016C180.972 88.928 180.132 89.552 179.316 89.888C177.924 90.416 176.34 90.536 174.564 90.248C172.788 89.96 171.084 89.336 169.452 88.376C168.684 89.864 168.18 91.28 167.94 92.624C167.748 93.92 167.916 94.952 168.444 95.72C169.596 97.256 171.156 98.288 173.124 98.816C175.092 99.344 177.156 99.272 179.316 98.6C181.476 97.928 183.588 96.608 185.652 94.64C187.764 92.624 189.54 89.84 190.98 86.288C191.268 85.52 191.628 85.04 192.06 84.848C192.54 84.608 192.972 84.608 193.356 84.848C193.788 85.04 194.1 85.424 194.292 86C194.484 86.576 194.46 87.296 194.22 88.16C193.884 89.264 193.452 90.416 192.924 91.616C192.444 92.768 191.964 93.8 191.484 94.712C190.044 97.544 188.556 99.704 187.02 101.192C185.484 102.68 183.9 103.688 182.268 104.216C180.684 104.792 179.052 104.984 177.372 104.792C175.74 104.6 174.108 104.264 172.476 103.784C171.756 103.592 170.892 103.184 169.884 102.56C168.924 101.888 167.988 101.072 167.076 100.112C166.164 99.104 165.324 97.976 164.556 96.728C163.788 95.432 163.26 94.016 162.972 92.48ZM180.828 79.376C180.156 79.232 179.436 79.28 178.668 79.52C177.948 79.76 177.18 80.144 176.364 80.672C175.596 81.2 174.804 81.848 173.988 82.616C173.22 83.384 172.476 84.2 171.756 85.064C172.38 85.4 173.052 85.712 173.772 86C174.54 86.24 175.284 86.408 176.004 86.504C176.724 86.552 177.42 86.504 178.092 86.36C178.764 86.168 179.316 85.808 179.748 85.28C180.132 84.8 180.516 84.248 180.9 83.624C181.332 83 181.62 82.4 181.764 81.824C181.956 81.248 182.004 80.744 181.908 80.312C181.812 79.88 181.452 79.568 180.828 79.376ZM191.604 95.72C191.076 94.712 190.668 93.32 190.38 91.544C190.092 89.72 189.9 87.632 189.804 85.28C189.66 82.928 189.588 80.384 189.588 77.648C189.588 74.912 189.636 72.08 189.732 69.152C189.876 65.696 190.14 62.24 190.524 58.784C190.908 55.328 191.412 52.064 192.036 48.992C192.612 45.872 193.308 43.04 194.124 40.496C194.892 37.952 195.732 35.912 196.644 34.376C197.604 32.792 198.636 31.808 199.74 31.424C200.844 31.04 201.996 31.448 203.196 32.648C204.108 33.512 204.828 34.376 205.356 35.24C205.932 36.056 206.364 36.896 206.652 37.76C206.94 38.624 207.132 39.56 207.228 40.568C207.324 41.576 207.348 42.704 207.3 43.952C207.204 46.832 206.868 49.712 206.292 52.592C205.716 55.424 204.948 58.232 203.988 61.016C203.076 63.752 202.02 66.44 200.82 69.08C199.668 71.72 198.468 74.264 197.22 76.712C197.028 79.688 196.932 82.64 196.932 85.568C196.932 88.496 197.124 90.992 197.508 93.056C197.892 95.12 198.516 96.56 199.38 97.376C200.244 98.192 201.444 97.952 202.98 96.656C203.46 96.224 203.964 95.744 204.492 95.216C205.02 94.64 205.572 93.968 206.148 93.2C206.724 92.384 207.324 91.424 207.948 90.32C208.572 89.168 209.22 87.824 209.892 86.288C210.18 85.568 210.564 85.112 211.044 84.92C211.524 84.68 211.956 84.656 212.34 84.848C212.772 85.04 213.084 85.424 213.276 86C213.468 86.576 213.42 87.296 213.132 88.16C212.652 89.792 212.028 91.52 211.26 93.344C210.492 95.12 209.604 96.776 208.596 98.312C207.588 99.848 206.508 101.168 205.356 102.272C204.204 103.328 203.004 103.928 201.756 104.072C200.748 104.168 199.74 103.976 198.732 103.496C197.724 103.016 196.764 102.368 195.852 101.552C194.988 100.736 194.196 99.824 193.476 98.816C192.708 97.76 192.084 96.728 191.604 95.72ZM198.588 62.672C198.492 63.44 198.372 64.328 198.228 65.336C198.084 66.344 197.964 67.472 197.868 68.72C199.116 65.888 200.22 62.864 201.18 59.648C202.188 56.384 202.932 52.856 203.412 49.064C203.508 48.344 203.628 47.408 203.772 46.256C203.964 45.104 204.084 44.024 204.132 43.016C204.228 41.96 204.252 41.096 204.204 40.424C204.204 39.704 204.06 39.416 203.772 39.56C203.532 39.704 203.196 40.448 202.764 41.792C202.332 43.088 201.876 44.816 201.396 46.976C200.916 49.088 200.412 51.512 199.884 54.248C199.404 56.984 198.972 59.792 198.588 62.672ZM210.297 73.328C210.345 72.32 210.825 71.72 211.737 71.528C212.601 71.336 213.537 71.432 214.545 71.816C215.553 72.2 216.441 72.824 217.209 73.688C218.025 74.504 218.409 75.44 218.361 76.496C218.313 77.312 218.193 78.464 218.001 79.952C217.809 81.44 217.593 83 217.353 84.632C217.161 86.216 216.969 87.728 216.777 89.168C216.585 90.608 216.489 91.688 216.489 92.408C216.489 93.752 216.537 94.856 216.633 95.72C216.729 96.536 216.921 97.088 217.209 97.376C217.545 97.664 217.977 97.688 218.505 97.448C219.081 97.16 219.849 96.56 220.809 95.648C222.633 93.824 224.265 89.312 225.705 82.112C225.849 79.808 225.993 77.792 226.137 76.064C226.281 74.288 226.449 72.92 226.641 71.96C226.785 70.952 227.265 70.424 228.081 70.376C228.945 70.28 229.857 70.496 230.817 71.024C231.777 71.552 232.617 72.296 233.337 73.256C234.105 74.168 234.465 75.152 234.417 76.208C234.177 79.136 233.937 81.896 233.697 84.488C233.457 87.032 233.193 89.48 232.905 91.832C232.617 94.184 232.305 96.488 231.969 98.744C231.633 101 231.273 103.256 230.889 105.512C231.849 104.744 232.809 103.832 233.769 102.776C234.729 101.72 235.665 100.424 236.577 98.888C237.537 97.352 238.473 95.552 239.385 93.488C240.345 91.424 241.329 89.024 242.337 86.288C242.625 85.52 242.985 85.04 243.417 84.848C243.897 84.608 244.329 84.608 244.713 84.848C245.145 85.04 245.457 85.424 245.649 86C245.889 86.576 245.865 87.296 245.577 88.16C244.569 91.472 243.441 94.472 242.193 97.16C240.945 99.8 239.625 102.056 238.233 103.928C236.553 106.232 235.041 108.08 233.697 109.472C232.353 110.864 230.937 112.04 229.449 113C228.921 115.448 228.321 117.752 227.649 119.912C226.977 122.072 226.209 123.944 225.345 125.528C224.481 127.16 223.545 128.456 222.537 129.416C221.529 130.424 220.425 130.952 219.225 131C217.785 131.048 216.585 130.712 215.625 129.992C214.713 129.272 213.993 128.336 213.465 127.184C212.889 126.08 212.481 124.832 212.241 123.44C212.001 122.096 211.881 120.824 211.881 119.624C211.881 118.328 212.361 116.96 213.321 115.52C214.233 114.128 215.385 113.048 216.777 112.28C217.977 111.704 219.081 111.2 220.089 110.768C221.145 110.384 222.177 110 223.185 109.616C223.425 108.176 223.617 106.688 223.761 105.152C223.905 103.664 224.049 102.128 224.193 100.544C223.473 101.504 222.729 102.296 221.961 102.92C221.193 103.496 220.401 103.784 219.585 103.784C219.153 103.784 218.577 103.688 217.857 103.496C217.137 103.304 216.393 102.992 215.625 102.56C214.905 102.128 214.209 101.576 213.537 100.904C212.865 100.232 212.313 99.416 211.881 98.456C211.113 96.344 210.609 93.968 210.369 91.328C210.081 88.688 209.937 86.144 209.937 83.696C209.937 81.248 210.009 79.088 210.153 77.216C210.249 75.296 210.297 74 210.297 73.328ZM218.937 124.376C219.609 124.568 220.209 123.968 220.737 122.576C221.265 121.184 221.745 119.264 222.177 116.816C221.169 117.152 220.065 117.656 218.865 118.328C218.193 118.616 217.737 119.072 217.497 119.696C217.257 120.32 217.161 120.944 217.209 121.568C217.257 122.24 217.425 122.84 217.713 123.368C218.049 123.896 218.457 124.232 218.937 124.376Z" fill="#FC8018"/>
</svg>
