<svg width="68" height="118" viewBox="0 0 68 118" fill="none" xmlns="http://www.w3.org/2000/svg">
<path d="M2.904 77.864C2.568 77.768 2.232 77.576 1.896 77.288C1.512 76.952 1.224 76.592 1.032 76.208C0.791999 75.824 0.719999 75.44 0.815999 75.056C0.863999 74.672 1.152 74.384 1.68 74.192C3.024 73.328 5.232 72.392 8.304 71.384C11.328 70.376 14.784 69.392 18.672 68.432C18.576 62.528 18.576 55.832 18.672 48.344C18.816 40.856 19.2 32.336 19.824 22.784C19.776 22.352 19.992 22.088 20.472 21.992C21 21.896 21.648 21.944 22.416 22.136C23.184 22.28 24 22.544 24.864 22.928C25.776 23.264 26.592 23.672 27.312 24.152C28.032 24.632 28.608 25.112 29.04 25.592C29.52 26.072 29.688 26.528 29.544 26.96C28.824 34.496 28.248 41.504 27.816 47.984C27.384 54.416 27.048 60.632 26.808 66.632C30.888 65.768 35.016 64.976 39.192 64.256C43.368 63.536 47.256 62.984 50.856 62.6L51 59.216C51.144 56.288 51.336 53.096 51.576 49.64C51.864 46.184 52.176 42.632 52.512 38.984C52.848 35.336 53.208 31.688 53.592 28.04C53.976 24.392 54.384 20.912 54.816 17.6C55.296 14.288 55.776 11.216 56.256 8.384C56.736 5.504 57.24 3.032 57.768 0.967992C57.72 0.535995 57.936 0.295995 58.416 0.247993C58.944 0.151994 59.592 0.199996 60.36 0.391999C61.128 0.583997 61.944 0.871996 62.808 1.256C63.72 1.64 64.536 2.072 65.256 2.552C65.976 3.032 66.552 3.536 66.984 4.064C67.416 4.592 67.584 5.04799 67.488 5.43199C66.48 9.46399 65.544 13.808 64.68 18.464C63.816 23.12 63 27.896 62.232 32.792C61.512 37.688 60.864 42.608 60.288 47.552C59.76 52.496 59.328 57.272 58.992 61.88C60.576 61.784 61.944 61.784 63.096 61.88C64.248 61.928 65.088 62.048 65.616 62.24C66.576 62.768 67.032 63.512 66.984 64.472C66.936 65.384 66.624 66.272 66.048 67.136C65.472 68 64.728 68.72 63.816 69.296C62.904 69.824 62.064 69.944 61.296 69.656L58.488 69.44C58.344 71.888 58.2 74.552 58.056 77.432C57.912 80.312 57.768 83.264 57.624 86.288C57.528 89.264 57.432 92.264 57.336 95.288C57.24 98.264 57.168 101.096 57.12 103.784C57.072 106.424 57.048 108.824 57.048 110.984C57.048 113.144 57.096 114.92 57.192 116.312C57.096 117.128 56.688 117.608 55.968 117.752C55.296 117.896 54.552 117.8 53.736 117.464C52.92 117.176 52.176 116.696 51.504 116.024C50.88 115.4 50.592 114.68 50.64 113.864C50.544 110.792 50.472 107.432 50.424 103.784C50.376 100.136 50.328 96.368 50.28 92.48C50.28 88.592 50.304 84.68 50.352 80.744C50.4 76.76 50.472 72.944 50.568 69.296C46.68 69.392 42.672 69.656 38.544 70.088C34.416 70.52 30.432 71.072 26.592 71.744C26.496 75.632 26.448 79.472 26.448 83.264C26.448 87.008 26.472 90.728 26.52 94.424C26.424 95.24 26.016 95.744 25.296 95.936C24.624 96.08 23.88 96.008 23.064 95.72C22.296 95.432 21.576 94.976 20.904 94.352C20.232 93.728 19.896 93.008 19.896 92.192C19.656 89.888 19.44 87.176 19.248 84.056C19.056 80.888 18.912 77.264 18.816 73.184C15.216 73.952 12.048 74.744 9.312 75.56C6.528 76.328 4.392 77.096 2.904 77.864Z" fill="#FC8018"/>
</svg>
