<svg width="641" height="450" viewBox="0 0 641 450" fill="none" xmlns="http://www.w3.org/2000/svg">
<g clip-path="url(#clip0_347:2)">
<path d="M100.307 450C155.705 450 200.614 446.523 200.614 442.234C200.614 437.945 155.705 434.469 100.307 434.469C44.909 434.469 0 437.945 0 442.234C0 446.523 44.909 450 100.307 450Z" fill="#FC8018"/>
<path opacity="0.1" d="M80.4125 18.3345L80.3266 17.8586L72.1905 13.5493H70.9137L70.4253 12.6133H53.6576L49.7693 13.5493H35.4486L31.569 18.0768L31.5293 18.3543C31.2782 19.9736 25.6668 58.0505 40.4719 70.1656L46.6451 73.0341H50.6371L49.8567 71.476L53.3272 73.0341H64.5632L64.7628 72.7346L71.4304 70.2383L71.6022 70.04C72.2037 69.3262 86.3743 52.1087 80.4125 18.3345Z" fill="#FC8018"/>
<path d="M60.2671 56.1801H53.6577V73.3646H60.2671V56.1801Z" fill="#E6E6E6"/>
<path d="M62.5804 95.5061H50.6834V425.977H62.5804V95.5061Z" fill="#3F3D56"/>
<path d="M65.5546 89.8881H47.7092V101.124H65.5546V89.8881Z" fill="#3F3D56"/>
<path d="M41.1 69.3989L52.3357 81.296L47.7093 89.8881L56.9622 91.871L65.5549 89.8881L60.2671 80.6353L70.8421 69.3989H41.1Z" fill="#3F3D56"/>
<path d="M32.5075 18.5064L27.22 13.2188L31.1856 9.25319H81.4172L85.3829 13.8798L79.4344 18.5064C79.4344 18.5064 47.7092 17.1845 32.5075 18.5064Z" fill="#3F3D56"/>
<path d="M80.4126 18.3345L80.3266 17.8586L72.1905 13.5493L68.4759 11.5797L47.6232 10.238L35.9311 12.9875L35.4486 13.5493L31.569 18.0767L31.5293 18.3543C31.2782 19.9736 25.6668 58.0505 40.4719 70.1656L46.6451 73.0341L51.8401 75.4465L50.6371 73.0341L48.6609 69.0882C46.5922 57.0459 42.0449 25.4066 44.9465 18.7972L56.9359 14.9306L67.5771 18.8831C68.3107 23.6353 73.0563 56.9534 64.7417 68.8305L64.5632 69.0883V72.8094L71.4304 70.2383L71.6022 70.04C72.2037 69.3262 86.3743 52.1086 80.4126 18.3345ZM70.2341 68.5661L66.546 69.9541V69.7029C75.667 56.0942 69.7054 19.5506 69.4476 17.9908L69.355 17.4224L58.9253 13.5493L56.9888 12.8288L54.7547 13.5493L43.5717 17.158L43.3799 17.4951C39.1302 25.1158 46.4203 67.7531 46.731 69.5641L46.7574 69.7095L47.5439 71.2825L41.6285 68.5529C28.4427 57.5746 32.9635 22.4191 33.446 18.9359L37.0152 14.772L42.2101 13.5493L47.7951 12.234L56.9888 12.8288L67.9208 13.536L67.9472 13.5493L78.5421 19.1541C83.79 49.7887 71.7476 66.6097 70.2341 68.5661H70.2341Z" fill="#3F3D56"/>
<path d="M56.9623 18.5064C66.8181 18.5064 74.8078 14.3636 74.8078 9.25319C74.8078 4.14279 66.8181 0 56.9623 0C47.1066 0 39.1169 4.14279 39.1169 9.25319C39.1169 14.3636 47.1066 18.5064 56.9623 18.5064Z" fill="#3F3D56"/>
<path d="M47.7092 409.123L37.1341 442.831C37.1341 442.831 53.6577 452.084 76.1297 442.831L65.5546 409.123H47.7092Z" fill="#3F3D56"/>
<path d="M56.9624 58.1629C59.8826 58.1629 62.2499 55.7956 62.2499 52.8754C62.2499 49.9552 59.8826 47.5878 56.9624 47.5878C54.0421 47.5878 51.6748 49.9552 51.6748 52.8754C51.6748 55.7956 54.0421 58.1629 56.9624 58.1629Z" fill="#FC8018"/>
<path d="M252.022 248.003C254.815 258.327 264.381 264.721 264.381 264.721C264.381 264.721 269.42 254.376 266.627 244.052C263.834 233.728 254.267 227.334 254.267 227.334C254.267 227.334 249.229 237.679 252.022 248.003Z" fill="#FC8018"/>
<path d="M256.126 245.784C263.79 253.245 264.726 264.713 264.726 264.713C264.726 264.713 253.237 264.086 245.573 256.625C237.909 249.165 236.973 237.696 236.973 237.696C236.973 237.696 248.462 238.324 256.126 245.784Z" fill="#E6E6E6"/>
<path d="M634.47 245.957L367.168 321.752L611.046 184.336C599.928 163.967 585.97 145.282 569.592 128.841L332.975 259.065L531.065 97.3142C502.654 78.5199 470.603 65.9199 436.999 60.3347L327.277 243.523L399.947 57.0469C398.865 57.0327 397.784 57.0166 396.698 57.0166C261.934 57.0166 152.686 166.265 152.686 301.029C152.615 345.603 164.812 389.336 187.941 427.439H605.456C638.332 373.01 648.737 307.923 634.47 245.957Z" fill="#F2F2F2"/>
<path d="M613.491 404.654C613.491 383.838 602.929 366.962 589.899 366.962C581.709 366.962 574.496 373.631 570.266 383.753C568.837 383.16 567.305 382.852 565.757 382.848C561.814 382.848 558.167 384.869 555.193 388.289C551.38 375.669 543.294 366.962 533.935 366.962C525.184 366.962 517.552 374.58 513.479 385.885C511.216 383.975 508.365 382.903 505.404 382.848C495.405 382.848 487.298 395.799 487.298 411.774C487.257 417.1 488.225 422.385 490.151 427.35H608.733C611.719 421.036 613.491 413.177 613.491 404.654Z" fill="#FC8018"/>
<path d="M374.939 151.306V151.306C374.939 127.123 384.546 103.931 401.646 86.8313C418.745 69.7316 441.938 60.125 466.12 60.125" stroke="#3F3D56" stroke-width="2" stroke-miterlimit="10"/>
<path d="M408.115 163.24C400.812 190.238 375.795 206.959 375.795 206.959C375.795 206.959 362.62 179.907 369.924 152.909C377.228 125.91 402.244 109.189 402.244 109.189C402.244 109.189 415.419 136.242 408.115 163.24Z" fill="#FC8018"/>
<path d="M341.673 163.24C348.977 190.238 373.993 206.959 373.993 206.959C373.993 206.959 387.168 179.907 379.865 152.909C372.561 125.91 347.544 109.189 347.544 109.189C347.544 109.189 334.37 136.242 341.673 163.24Z" fill="#FC8018"/>
<path d="M352.405 157.438C372.446 176.947 374.894 206.937 374.894 206.937C374.894 206.937 344.849 205.297 324.808 185.788C304.767 166.278 302.319 136.288 302.319 136.288C302.319 136.288 332.364 137.929 352.405 157.438Z" fill="#3F3D56"/>
<path d="M397.383 157.438C377.342 176.947 374.894 206.937 374.894 206.937C374.894 206.937 404.94 205.297 424.981 185.788C445.022 166.278 447.47 136.288 447.47 136.288C447.47 136.288 417.424 137.929 397.383 157.438Z" fill="#3F3D56"/>
<path d="M451.352 79.6279C454.589 67.6621 465.676 60.2514 465.676 60.2514C465.676 60.2514 471.515 72.2411 468.278 84.2069C465.041 96.1727 453.954 103.583 453.954 103.583C453.954 103.583 448.115 91.5937 451.352 79.6279Z" fill="#FC8018"/>
<path d="M480.799 79.6279C477.562 67.6621 466.475 60.2514 466.475 60.2514C466.475 60.2514 460.635 72.2411 463.872 84.2069C467.109 96.1727 478.197 103.583 478.197 103.583C478.197 103.583 484.036 91.5937 480.799 79.6279Z" fill="#FC8018"/>
<path d="M476.042 82.1995C467.16 73.5529 466.075 60.2612 466.075 60.2612C466.075 60.2612 479.391 60.9883 488.274 69.6348C497.156 78.2814 498.241 91.5731 498.241 91.5731C498.241 91.5731 484.925 90.8461 476.042 82.1995Z" fill="#3F3D56"/>
<path d="M456.108 82.1995C464.99 73.5529 466.075 60.2612 466.075 60.2612C466.075 60.2612 452.759 60.9883 443.877 69.6348C434.995 78.2814 433.91 91.5731 433.91 91.5731C433.91 91.5731 447.226 90.8461 456.108 82.1995Z" fill="#3F3D56"/>
<path d="M563.518 325.897H552.639V265.629C552.634 263.982 551.977 262.404 550.812 261.239C549.648 260.074 548.069 259.417 546.422 259.413H527.771V206.368C527.766 204.72 527.11 203.142 525.945 201.977C524.78 200.812 523.202 200.156 521.554 200.151H231.433C229.786 200.156 228.207 200.812 227.042 201.977C225.877 203.142 225.221 204.72 225.216 206.368V259.413H206.565C204.918 259.417 203.34 260.074 202.175 261.239C201.01 262.404 200.353 263.982 200.349 265.629V325.897H189.469C187.822 325.902 186.243 326.558 185.078 327.723C183.913 328.888 183.257 330.466 183.252 332.114V421.222C183.257 422.87 183.913 424.448 185.078 425.613C186.243 426.778 187.822 427.434 189.469 427.439H563.518C565.165 427.434 566.744 426.778 567.909 425.613C569.074 424.448 569.73 422.87 569.735 421.222V332.114C569.73 330.466 569.074 328.888 567.909 327.723C566.744 326.558 565.165 325.902 563.518 325.897Z" fill="#3F3D56"/>
<path d="M509.156 307.057C503.443 316.099 505.207 327.47 505.207 327.47C505.207 327.47 516.234 324.181 521.947 315.139C527.659 306.097 525.895 294.726 525.895 294.726C525.895 294.726 514.869 298.016 509.156 307.057Z" fill="#FC8018"/>
<path d="M513.567 308.578C513.258 319.269 505.447 327.718 505.447 327.718C505.447 327.718 498.135 318.833 498.443 308.142C498.752 297.451 506.563 289.002 506.563 289.002C506.563 289.002 513.875 297.887 513.567 308.578Z" fill="#E6E6E6"/>
<path d="M552.639 325.897H200.348V332.114H552.639V325.897Z" fill="#E6E6E6"/>
<path d="M527.771 259.583H225.216V265.8H527.771V259.583Z" fill="#E6E6E6"/>
<path d="M466.12 114.523C469.554 114.523 472.337 111.739 472.337 108.306C472.337 104.872 469.554 102.089 466.12 102.089C462.687 102.089 459.903 104.872 459.903 108.306C459.903 111.739 462.687 114.523 466.12 114.523Z" fill="#FC8018"/>
<path d="M266.889 252.83L430.612 206.33L455.011 292.238L443.183 295.597L452.201 327.346L411.435 304.615L291.288 338.738L266.889 252.83Z" fill="#FC8018"/>
<path d="M366.173 290.922L362.544 289.137C349.61 282.632 341.1 278.442 338.938 270.826C338.501 269.385 338.357 267.87 338.516 266.372C338.675 264.874 339.133 263.423 339.863 262.105C340.592 260.787 341.579 259.629 342.764 258.699C343.95 257.769 345.309 257.087 346.763 256.692C348.476 256.215 350.272 256.117 352.026 256.404C353.781 256.691 355.452 257.357 356.923 258.355C357.65 256.732 358.722 255.288 360.063 254.121C361.405 252.955 362.984 252.095 364.692 251.6C366.136 251.172 367.652 251.038 369.149 251.205C370.646 251.373 372.094 251.84 373.408 252.578C374.721 253.315 375.873 254.309 376.796 255.5C377.719 256.691 378.393 258.055 378.779 259.511C380.942 267.126 375.905 275.163 368.321 287.496L366.173 290.922Z" fill="white"/>
<path d="M75.6032 205.885C75.6032 205.885 71.4026 218.487 73.7362 221.287C76.0699 224.088 59.7343 212.886 59.7343 212.886L68.6022 202.618L75.6032 205.885Z" fill="#A0616A"/>
<path d="M66.0239 205.865C77.5972 205.865 86.9792 196.483 86.9792 184.909C86.9792 173.336 77.5972 163.954 66.0239 163.954C54.4505 163.954 45.0685 173.336 45.0685 184.909C45.0685 196.483 54.4505 205.865 66.0239 205.865Z" fill="#2F2E41"/>
<path d="M147.48 347.771L136.745 356.172L130.677 346.371L141.412 338.903L147.48 347.771Z" fill="#A0616A"/>
<path d="M132.311 411.013L135.111 424.548L143.046 435.283C143.046 435.283 164.515 441.817 150.047 445.085C135.578 448.352 132.311 442.751 132.311 442.751L122.043 433.883V446.018H115.509L114.108 428.749C114.108 428.749 113.175 423.615 117.376 418.014L118.309 409.613L132.311 411.013Z" fill="#2F2E41"/>
<path d="M78.1702 243.457L81.904 264.926C81.904 264.926 121.576 260.726 124.377 268.66C127.177 276.595 128.11 278.928 128.11 278.928L120.176 281.729L116.442 274.728C115.305 274.325 114.097 274.159 112.893 274.239C111.69 274.319 110.515 274.644 109.441 275.195C105.707 277.061 73.0361 281.729 70.7025 275.661C68.3689 269.594 61.8346 247.191 61.8346 247.191L71.636 239.256L78.1702 243.457Z" fill="#A0616A"/>
<path opacity="0.1" d="M78.1702 243.457L81.904 264.926C81.904 264.926 121.576 260.726 124.377 268.66C127.177 276.595 128.11 278.928 128.11 278.928L120.176 281.729L116.442 274.728C115.305 274.325 114.097 274.159 112.893 274.239C111.69 274.319 110.515 274.644 109.441 275.195C105.707 277.061 73.0361 281.729 70.7025 275.661C68.3689 269.594 61.8346 247.191 61.8346 247.191L71.636 239.256L78.1702 243.457Z" fill="black"/>
<path d="M100.107 305.532L103.374 316.734L111.775 359.673C111.775 359.673 112.708 391.41 114.108 395.144C115.509 398.878 115.509 399.345 114.108 400.745C112.708 402.145 109.908 406.813 114.108 409.613C118.309 412.413 133.244 415.68 133.711 412.413C134.178 409.146 134.178 404.012 133.711 401.679C133.244 399.345 135.111 362.94 135.111 362.94L129.511 307.399L110.375 298.531L100.107 305.532Z" fill="#2F2E41"/>
<path opacity="0.1" d="M100.107 305.532L103.374 316.734L111.775 359.673C111.775 359.673 112.708 391.41 114.108 395.144C115.509 398.878 115.509 399.345 114.108 400.745C112.708 402.145 109.908 406.813 114.108 409.613C118.309 412.413 133.244 415.68 133.711 412.413C134.178 409.146 134.178 404.012 133.711 401.679C133.244 399.345 135.111 362.94 135.111 362.94L129.511 307.399L110.375 298.531L100.107 305.532Z" fill="black"/>
<path d="M120.176 261.659L130.444 281.262C130.444 281.262 189.252 307.399 184.118 318.134C178.984 328.869 150.513 348.938 150.513 348.938C150.513 348.938 149.113 356.872 144.913 354.539C140.712 352.205 130.444 340.07 131.377 338.67C132.311 337.27 135.578 334.003 136.978 334.469C138.378 334.936 154.714 322.334 154.714 322.334L126.71 315.333C126.71 315.333 93.1055 314.4 91.2386 298.531C89.3717 282.662 91.2386 279.862 91.2386 279.862L88.905 274.728L108.041 263.06L120.176 261.659Z" fill="#2F2E41"/>
<path d="M134.645 339.137L124.843 348.005C124.843 348.005 116.442 344.271 111.308 345.671C106.174 347.071 97.3062 348.005 97.3062 348.005L98.7063 355.939L110.614 353.742L101.04 367.14C101.04 367.14 101.04 388.143 107.107 388.143C113.175 388.143 111.308 375.542 111.308 375.542L129.977 361.073C129.977 361.073 139.312 357.339 140.245 357.339C141.179 357.339 134.645 339.137 134.645 339.137Z" fill="#2F2E41"/>
<path d="M73.7362 209.619C82.5003 209.619 89.6051 202.514 89.6051 193.75C89.6051 184.986 82.5003 177.881 73.7362 177.881C64.9721 177.881 57.8674 184.986 57.8674 193.75C57.8674 202.514 64.9721 209.619 73.7362 209.619Z" fill="#A0616A"/>
<path d="M58.1008 206.118C58.1008 206.118 65.5685 204.251 67.9021 206.118C70.2357 207.985 70.7025 212.186 73.9696 212.653C77.2367 213.119 80.0371 213.119 80.5038 213.586C80.9705 214.053 91.7053 227.121 91.7053 227.121C91.7053 227.121 98.2395 230.855 99.6398 235.989C101.04 241.123 115.042 258.392 116.909 260.259C118.776 262.126 104.774 271.461 100.106 274.728C95.4392 277.995 81.904 279.395 77.7034 271.927C73.5028 264.46 50.6331 215.92 58.1008 206.118Z" fill="#575A89"/>
<path d="M75.8365 236.456L79.5704 257.926C79.5704 257.926 119.242 253.725 122.043 261.659C124.843 269.594 125.777 271.927 125.777 271.927L117.842 274.728L114.108 267.727C112.971 267.324 111.764 267.158 110.56 267.238C109.356 267.318 108.181 267.643 107.107 268.194C103.374 270.061 70.7025 274.728 68.3688 268.66C66.0352 262.593 59.5009 240.19 59.5009 240.19L69.3023 232.255L75.8365 236.456Z" fill="#A0616A"/>
<path d="M66.9174 208.082C66.9174 208.082 78.1702 231.789 77.2367 238.323C76.3033 244.857 73.0361 240.19 73.0361 240.19C73.0361 240.19 68.8355 233.656 66.9686 237.389C65.1017 241.123 62.768 246.257 60.9011 245.791C59.0342 245.324 48.7661 210.786 54.3669 207.519C59.9677 204.251 66.9174 208.082 66.9174 208.082Z" fill="#575A89"/>
<path d="M43.3222 178.273C54.8955 178.273 64.2776 168.891 64.2776 157.318C64.2776 145.745 54.8955 136.363 43.3222 136.363C31.7489 136.363 22.3669 145.745 22.3669 157.318C22.3669 168.891 31.7489 178.273 43.3222 178.273Z" fill="#2F2E41"/>
<path d="M25.2472 174.67C27.9595 176.631 31.1018 177.913 34.4112 178.41C37.7206 178.907 41.101 178.604 44.2693 177.527C47.4377 176.449 50.302 174.629 52.6226 172.218C54.9432 169.806 56.6526 166.874 57.6078 163.667C57.2463 166.541 56.2929 169.31 54.8077 171.797C53.3225 174.284 51.3377 176.436 48.9787 178.118C46.6197 179.799 43.9377 180.973 41.102 181.566C38.2664 182.158 35.3386 182.157 32.5037 181.561C29.6687 180.965 26.9881 179.787 24.6311 178.103C22.2741 176.419 20.2919 174.264 18.8096 171.775C17.3273 169.286 16.3772 166.517 16.0192 163.642C15.6612 160.768 15.903 157.85 16.7296 155.074C16.2601 158.804 16.8032 162.592 18.3019 166.04C19.8006 169.488 22.1996 172.469 25.2472 174.67Z" fill="#2F2E41"/>
<path d="M60.4358 203.769C68.9229 203.769 75.803 196.889 75.803 188.402C75.803 179.915 68.9229 173.035 60.4358 173.035C51.9487 173.035 45.0685 179.915 45.0685 188.402C45.0685 196.889 51.9487 203.769 60.4358 203.769Z" fill="#2F2E41"/>
<path d="M73.3582 193.291C80.8809 193.291 86.9792 188.522 86.9792 182.639C86.9792 176.756 80.8809 171.987 73.3582 171.987C65.8356 171.987 59.7372 176.756 59.7372 182.639C59.7372 188.522 65.8356 193.291 73.3582 193.291Z" fill="#2F2E41"/>
<path d="M73.9696 200.751C75.6451 200.751 77.0033 198.348 77.0033 195.384C77.0033 192.419 75.6451 190.016 73.9696 190.016C72.2941 190.016 70.9359 192.419 70.9359 195.384C70.9359 198.348 72.2941 200.751 73.9696 200.751Z" fill="#A0616A"/>
<path d="M115.613 274.524C115.613 274.524 123.876 269.784 125.41 270.972C126.944 272.161 127.625 275.88 127.625 275.88L118.076 279.629L115.275 274.494L115.613 274.524Z" fill="#2F2E41"/>
</g>
<defs>
<clipPath id="clip0_347:2">
<rect width="640.711" height="450" fill="white"/>
</clipPath>
</defs>
</svg>
