<svg width="297" height="400" viewBox="0 0 297 400" fill="none" xmlns="http://www.w3.org/2000/svg">
<g clip-path="url(#clip0_345:146)">
<path d="M296.37 95.0549H294.172V34.8468C294.172 30.2707 293.27 25.7393 291.519 21.5115C289.768 17.2837 287.201 13.4422 283.965 10.2064C280.73 6.97059 276.888 4.40378 272.66 2.65256C268.433 0.901345 263.901 3.60894e-06 259.325 0H131.766C127.19 -1.08264e-05 122.658 0.90132 118.431 2.65253C114.203 4.40373 110.361 6.97052 107.126 10.2063C103.89 13.4422 101.323 17.2836 99.5717 21.5114C97.8204 25.7392 96.9191 30.2706 96.9191 34.8467V365.153C96.9191 374.395 100.59 383.258 107.125 389.794C113.661 396.329 122.524 400 131.766 400H259.325C268.567 400 277.43 396.329 283.965 389.794C290.5 383.259 294.172 374.395 294.172 365.153V137.912H296.37L296.37 95.0549Z" fill="#3F3D56"/>
<path d="M260.731 9.06594H244.08C244.846 10.9432 245.138 12.98 244.931 14.9969C244.725 17.0138 244.025 18.9488 242.894 20.6316C241.763 22.3143 240.236 23.6932 238.446 24.6466C236.657 25.6 234.661 26.0987 232.633 26.0989H159.556C157.529 26.0987 155.533 25.6 153.743 24.6466C151.954 23.6932 150.427 22.3143 149.296 20.6316C148.165 18.9488 147.465 17.0138 147.258 14.9969C147.051 12.98 147.344 10.9432 148.109 9.06592H132.558C125.656 9.06591 119.037 11.8076 114.156 16.6879C109.276 21.5682 106.534 28.1873 106.534 35.0891V364.911C106.534 368.328 107.208 371.712 108.515 374.869C109.823 378.027 111.74 380.896 114.156 383.312C116.573 385.728 119.442 387.645 122.599 388.953C125.756 390.261 129.14 390.934 132.558 390.934H260.731C264.148 390.934 267.532 390.261 270.69 388.953C273.847 387.645 276.716 385.728 279.132 383.312C281.549 380.896 283.466 378.027 284.773 374.869C286.081 371.712 286.754 368.328 286.754 364.911V35.0891C286.754 31.6717 286.081 28.2877 284.773 25.1305C283.466 21.9732 281.549 19.1044 279.132 16.6879C276.716 14.2715 273.847 12.3546 270.69 11.0468C267.532 9.73904 264.148 9.06594 260.731 9.06594Z" fill="white"/>
<path d="M270.449 73.9171H122.84V326.083H270.449V73.9171Z" fill="#E6E6E6"/>
<path d="M73.2665 127.496C80.0328 133.135 66.5002 150.677 66.5002 150.677C66.5002 150.677 98.6401 151.931 96.1028 151.931C93.5654 151.931 91.4509 125.303 91.4509 125.303C91.4509 125.303 66.5002 121.857 73.2665 127.496Z" fill="#FFB8B8"/>
<path d="M60.1991 198.854L89.3288 209.296L105.268 215.892C105.268 215.892 115.71 244.472 120.657 257.113C125.604 269.754 109.665 290.09 109.665 290.09C109.665 290.09 111.314 296.136 109.665 298.884C108.812 300.287 108.077 301.758 107.466 303.281C106.917 304.38 100.871 303.831 94.2754 303.281C87.68 302.732 93.7258 292.289 93.7258 292.289C93.7258 292.289 99.2219 270.304 99.7716 269.754C100.285 269.241 101.757 265.372 100.159 263.968C98.6708 262.737 97.4485 261.217 96.5657 259.499C95.8261 258.02 94.8689 256.66 93.7257 255.464C93.7257 255.464 76.3058 229.775 67.7028 223.933C59.0998 218.09 39.1227 225.032 39.1227 225.032C39.1227 225.032 48.6571 239.525 48.6571 242.823C48.6571 246.121 49.2067 247.77 50.8555 248.869C52.5044 249.968 51.9548 252.167 51.9548 254.365C51.9548 256.564 53.6036 260.961 56.3517 263.159C59.0998 265.357 59.6494 267.556 59.0998 271.953C58.5502 276.35 43.7105 274.151 43.7105 274.151L36.5655 260.411C36.5655 260.411 25.5731 242.823 18.4281 224.136C14.8556 214.793 18.5655 208.472 23.1685 204.487C27.6038 200.725 33.3114 198.805 39.1186 199.121L64.9548 200.299L46.4586 195.006L60.1991 198.854Z" fill="#2F2E41"/>
<path d="M156.382 149.938L187.71 135.648C187.71 135.648 198.703 116.961 192.107 114.762C185.512 112.564 180.016 131.251 180.016 131.251L157.481 135.648L156.382 149.938Z" fill="#FFB8B8"/>
<path d="M32.1685 159.831C32.1685 159.831 16.2296 174.121 15.68 175.77C15.1304 177.419 5.23724 181.816 0.840297 174.121C-3.55665 166.426 10.7334 166.976 10.7334 166.976L20.6266 154.335L32.1685 159.831Z" fill="#FFB8B8"/>
<path d="M16.0387 151.383L33.0769 164.024L61.1074 154.131C55.8975 170.443 59.9794 187.718 42.8666 197.724L107.722 219.709C101.982 196.598 111.047 177.466 118.817 154.131C131.126 147.788 146.564 149.288 163.336 154.131V131.597L95.1838 135.444L84.6376 141.113L72.0998 137.643C53.9505 134.7 31.275 141.13 16.0387 151.383Z" fill="#FC8018"/>
<path d="M58.0006 271.403C59.6495 272.503 62.3975 282.945 62.9472 286.793C63.4968 290.64 58.5502 292.289 55.8021 292.838C53.054 293.388 53.6036 295.037 51.9548 296.686C50.3059 298.335 44.2601 298.884 36.0159 297.235C27.7716 295.586 39.8632 285.144 40.9624 284.594C42.0617 284.044 45.3594 271.403 45.3594 271.403C45.3594 271.403 56.3517 270.304 58.0006 271.403Z" fill="#2F2E41"/>
<path d="M103.619 301.632L108.016 313.174L112.173 319.41C113.305 321.073 114.069 322.959 114.413 324.941C114.757 326.923 114.674 328.955 114.169 330.903C113.469 333.48 112.018 335.915 109.115 336.808C101.97 339.006 97.5731 325.266 97.5731 325.266C97.5731 325.266 93.7258 317.571 90.9777 310.426C88.2296 303.281 93.1762 299.434 93.1762 299.434L103.619 301.632Z" fill="#2F2E41"/>
<path d="M82.5391 134.468C89.823 134.468 95.7277 128.564 95.7277 121.28C95.7277 113.996 89.823 108.091 82.5391 108.091C75.2553 108.091 69.3506 113.996 69.3506 121.28C69.3506 128.564 75.2553 134.468 82.5391 134.468Z" fill="#FFB8B8"/>
<path d="M97.4896 118.021C98.0718 116.357 98.2969 114.59 98.1503 112.833C98.0037 111.077 97.4887 109.371 96.6388 107.827C94.9447 104.823 91.6822 102.006 85.4101 101.847C71.7255 101.501 65.7955 111.819 66.5665 114.844C67.3375 117.87 70.096 125.069 70.096 125.069C70.096 125.069 68.3854 118.137 71.8066 117.444C75.2277 116.751 88.4847 113.978 92.3335 117.097C93.431 117.938 94.2863 119.054 94.8121 120.333C95.338 121.611 95.5156 123.006 95.3269 124.376L97.4896 118.021Z" fill="#2F2E41"/>
<path d="M196.863 372.502C204.755 372.502 211.153 366.105 211.153 358.212C211.153 350.32 204.755 343.922 196.863 343.922C188.971 343.922 182.573 350.32 182.573 358.212C182.573 366.105 188.971 372.502 196.863 372.502Z" fill="#E6E6E6"/>
</g>
<defs>
<clipPath id="clip0_345:146">
<rect width="296.37" height="400" fill="white"/>
</clipPath>
</defs>
</svg>
