<svg width="480" height="400" viewBox="0 0 480 400" fill="none" xmlns="http://www.w3.org/2000/svg">
<g clip-path="url(#clip0_342:40)">
<path d="M197.502 94.1263H195.326V34.5064C195.326 29.9749 194.433 25.4879 192.699 21.3013C190.965 17.1148 188.423 13.3109 185.219 10.1067C182.015 6.90244 178.211 4.36072 174.024 2.62661C169.838 0.892511 165.351 -1.41768e-05 160.819 1.68893e-10H34.5065C29.975 -1.41768e-05 25.4879 0.89251 21.3014 2.62661C17.1149 4.36072 13.3109 6.90244 10.1067 10.1067C6.90247 13.3109 4.36074 17.1148 2.62663 21.3014C0.89252 25.4879 -7.08844e-06 29.975 0 34.5064V361.586C-4.25305e-06 366.117 0.892527 370.604 2.62664 374.791C4.36075 378.977 6.90248 382.781 10.1067 385.985C13.3109 389.19 17.1149 391.731 21.3014 393.465C25.4879 395.199 29.975 396.092 34.5065 396.092H160.819C165.351 396.092 169.838 395.199 174.024 393.465C178.211 391.731 182.015 389.19 185.219 385.985C188.423 382.781 190.965 378.977 192.699 374.791C194.433 370.604 195.326 366.117 195.326 361.586V136.565H197.502V94.1263Z" fill="#3F3D56"/>
<path d="M162.211 8.97736H145.723C146.482 10.8363 146.771 12.8532 146.566 14.8504C146.361 16.8476 145.669 18.7637 144.549 20.43C143.429 22.0963 141.916 23.4617 140.145 24.4058C138.373 25.3499 136.396 25.8438 134.388 25.8439H62.0254C60.0177 25.8438 58.0409 25.3499 56.2691 24.4058C54.4973 23.4617 52.9849 22.0963 51.865 20.43C50.7452 18.7637 50.0523 16.8476 49.8474 14.8504C49.6426 12.8532 49.932 10.8363 50.6902 8.97736H35.2904C31.9064 8.97735 28.5555 9.64388 25.4291 10.9389C22.3026 12.2339 19.4619 14.132 17.069 16.5249C14.6761 18.9178 12.778 21.7585 11.483 24.8849C10.188 28.0114 9.52144 31.3622 9.52144 34.7463V361.346C9.52144 364.73 10.188 368.081 11.483 371.207C12.778 374.333 14.6761 377.174 17.069 379.567C19.4619 381.96 22.3026 383.858 25.4291 385.153C28.5555 386.448 31.9064 387.115 35.2904 387.115H162.211C165.595 387.115 168.946 386.448 172.073 385.153C175.199 383.858 178.04 381.96 180.433 379.567C182.826 377.174 184.724 374.333 186.019 371.207C187.314 368.081 187.98 364.73 187.98 361.346V34.7463C187.98 31.3622 187.314 28.0114 186.019 24.8849C184.724 21.7585 182.826 18.9178 180.433 16.5249C178.04 14.132 175.199 12.2339 172.073 10.9389C168.946 9.64388 165.595 8.97735 162.211 8.97736Z" fill="white"/>
<path d="M61.3576 75.3714H53.7796C53.5131 75.3714 53.2576 75.4773 53.0691 75.6657C52.8807 75.8541 52.7749 76.1096 52.7749 76.3761V79.7023C52.7749 79.9688 52.8807 80.2243 53.0691 80.4128C53.2576 80.6012 53.5131 80.707 53.7796 80.707H55.0354V85.6909H60.1018V80.707H61.3576C61.6241 80.707 61.8796 80.6012 62.0681 80.4128C62.2565 80.2243 62.3623 79.9688 62.3623 79.7023V76.3761C62.3623 76.1096 62.2565 75.8541 62.0681 75.6657C61.8796 75.4773 61.6241 75.3714 61.3576 75.3714Z" fill="#3F3D56"/>
<path d="M68.9479 105.813C64.3068 99.0221 61.9342 90.9363 62.17 82.7143C62.1742 82.5245 62.1126 82.3392 61.9957 82.1897C61.8788 82.0403 61.7138 81.9359 61.5286 81.8943V80.457H53.5252V81.8743H53.4149C53.1971 81.8746 52.9883 81.9614 52.8345 82.1156C52.6807 82.2698 52.5945 82.4788 52.5947 82.6966C52.5948 82.7165 52.5955 82.7365 52.597 82.7564C53.2275 91.5457 51.0984 99.4278 46.2096 106.403C45.9283 106.803 45.7846 107.285 45.8 107.774L46.6752 134.845C46.6962 135.448 46.9496 136.021 47.3825 136.442C47.8154 136.864 48.3944 137.102 48.9985 137.106H67.1011C67.7122 137.101 68.2971 136.858 68.7314 136.428C69.1656 135.998 69.4148 135.416 69.4259 134.805L69.7631 108.522C69.7731 107.557 69.4887 106.612 68.9479 105.813Z" fill="#3F3D56"/>
<path d="M66.0822 114.805H50.3253C50.092 114.805 49.8616 114.856 49.6496 114.953C49.4377 115.05 49.2494 115.192 49.0975 115.369C48.9456 115.547 48.8338 115.754 48.7698 115.979C48.7057 116.203 48.6909 116.438 48.7264 116.669L51.1075 132.146H64.78L67.6722 116.721C67.716 116.487 67.7078 116.247 67.6481 116.017C67.5885 115.787 67.4789 115.573 67.3271 115.39C67.1752 115.207 66.985 115.06 66.7698 114.959C66.5547 114.858 66.3199 114.805 66.0822 114.805Z" fill="white"/>
<path d="M145.716 156.464H138.138C137.872 156.464 137.616 156.57 137.428 156.759C137.239 156.947 137.133 157.203 137.133 157.469V160.795C137.133 161.062 137.239 161.317 137.428 161.506C137.616 161.694 137.872 161.8 138.138 161.8H139.394V166.784H144.46V161.8H145.716C145.983 161.8 146.238 161.694 146.427 161.506C146.615 161.317 146.721 161.062 146.721 160.795V157.469C146.721 157.203 146.615 156.947 146.427 156.759C146.238 156.57 145.983 156.464 145.716 156.464Z" fill="#3F3D56"/>
<path d="M153.306 186.906C148.665 180.115 146.293 172.029 146.528 163.807C146.533 163.617 146.471 163.432 146.354 163.283C146.237 163.133 146.072 163.029 145.887 162.987V161.55H137.884V162.967H137.773C137.666 162.967 137.559 162.989 137.459 163.03C137.36 163.072 137.269 163.132 137.193 163.208C137.117 163.285 137.056 163.375 137.015 163.475C136.974 163.575 136.953 163.682 136.953 163.789C136.953 163.809 136.954 163.829 136.955 163.849C137.586 172.639 135.457 180.521 130.568 187.496C130.287 187.896 130.143 188.378 130.159 188.867L131.034 215.938C131.055 216.541 131.308 217.114 131.741 217.535C132.174 217.957 132.753 218.195 133.357 218.199H151.46C152.071 218.194 152.656 217.951 153.09 217.521C153.524 217.091 153.773 216.509 153.784 215.898L154.122 189.615C154.132 188.65 153.847 187.705 153.306 186.906Z" fill="#3F3D56"/>
<path d="M150.441 195.898H134.684C134.451 195.898 134.22 195.949 134.008 196.046C133.796 196.143 133.608 196.285 133.456 196.462C133.304 196.639 133.192 196.847 133.128 197.072C133.064 197.296 133.049 197.531 133.085 197.762L135.466 213.239H149.139L152.031 197.814C152.075 197.58 152.066 197.34 152.007 197.11C151.947 196.88 151.837 196.666 151.686 196.483C151.534 196.3 151.343 196.153 151.128 196.052C150.913 195.95 150.678 195.898 150.441 195.898H150.441Z" fill="white"/>
<path d="M50.7038 271.106H47.1092C46.9828 271.106 46.8616 271.156 46.7722 271.246C46.6829 271.335 46.6326 271.456 46.6326 271.583V273.16C46.6326 273.287 46.6829 273.408 46.7722 273.497C46.8616 273.587 46.9828 273.637 47.1092 273.637H47.7049V276.001H50.1082V273.637H50.7038C50.8302 273.637 50.9515 273.587 51.0408 273.497C51.1302 273.408 51.1804 273.287 51.1804 273.16V271.583C51.1804 271.456 51.1302 271.335 51.0408 271.246C50.9515 271.156 50.8302 271.106 50.7038 271.106Z" fill="#3F3D56"/>
<path d="M54.3043 285.546C52.1028 282.325 50.9774 278.489 51.0892 274.589C51.0912 274.499 51.062 274.411 51.0065 274.34C50.9511 274.269 50.8728 274.22 50.785 274.2V273.518H46.9886V274.191H46.9363C46.8851 274.191 46.8345 274.201 46.7872 274.221C46.74 274.24 46.6971 274.269 46.661 274.305C46.6248 274.341 46.5962 274.384 46.5767 274.432C46.5572 274.479 46.5472 274.53 46.5472 274.581C46.5472 274.59 46.5476 274.6 46.5483 274.609C46.8987 278.589 45.825 282.564 43.5185 285.826C43.385 286.016 43.3169 286.244 43.3242 286.476L43.7393 299.317C43.7493 299.603 43.8695 299.875 44.0748 300.075C44.2802 300.275 44.5548 300.388 44.8414 300.39H53.4282C53.7181 300.388 53.9956 300.272 54.2015 300.068C54.4075 299.864 54.5257 299.588 54.531 299.298L54.691 286.831C54.6957 286.373 54.5608 285.925 54.3043 285.546Z" fill="#3F3D56"/>
<path d="M53.0684 290.266H44.8751V294.363H53.0684V290.266Z" fill="white"/>
<path d="M67.4369 271.106H63.8423C63.7159 271.106 63.5947 271.156 63.5053 271.246C63.4159 271.335 63.3657 271.456 63.3657 271.583V273.16C63.3657 273.287 63.4159 273.408 63.5053 273.497C63.5947 273.587 63.7159 273.637 63.8423 273.637H64.4379V276.001H66.8412V273.637H67.4369C67.5633 273.637 67.6845 273.587 67.7739 273.497C67.8633 273.408 67.9135 273.287 67.9135 273.16V271.583C67.9135 271.456 67.8633 271.335 67.7739 271.246C67.6845 271.156 67.5633 271.106 67.4369 271.106Z" fill="#3F3D56"/>
<path d="M71.0373 285.546C68.8359 282.325 67.7104 278.489 67.8223 274.589C67.8243 274.499 67.795 274.411 67.7396 274.34C67.6841 274.269 67.6059 274.22 67.518 274.2V273.518H63.7216V274.191H63.6693C63.6182 274.191 63.5675 274.201 63.5203 274.221C63.473 274.24 63.4301 274.269 63.394 274.305C63.3579 274.341 63.3292 274.384 63.3097 274.432C63.2902 274.479 63.2802 274.53 63.2803 274.581C63.2803 274.59 63.2806 274.6 63.2814 274.609C63.6318 278.589 62.5581 282.564 60.2515 285.826C60.1181 286.016 60.0499 286.244 60.0572 286.476L60.4723 299.317C60.4823 299.603 60.6025 299.875 60.8079 300.075C61.0132 300.275 61.2878 300.388 61.5744 300.39H70.1613C70.4511 300.388 70.7286 300.272 70.9346 300.068C71.1406 299.864 71.2588 299.588 71.2641 299.298L71.424 286.831C71.4288 286.373 71.2939 285.925 71.0373 285.546Z" fill="#3F3D56"/>
<path d="M69.8015 290.266H61.6082V294.363H69.8015V290.266Z" fill="white"/>
<path d="M84.1699 271.106H80.5753C80.4489 271.106 80.3277 271.156 80.2383 271.246C80.149 271.335 80.0987 271.456 80.0987 271.583V273.16C80.0987 273.287 80.149 273.408 80.2383 273.497C80.3277 273.587 80.4489 273.637 80.5753 273.637H81.171V276.001H83.5743V273.637H84.1699C84.2963 273.637 84.4176 273.587 84.5069 273.497C84.5963 273.408 84.6465 273.287 84.6465 273.16V271.583C84.6465 271.456 84.5963 271.335 84.5069 271.246C84.4176 271.156 84.2963 271.106 84.1699 271.106Z" fill="#3F3D56"/>
<path d="M87.7704 285.546C85.5689 282.325 84.4435 278.489 84.5553 274.589C84.5573 274.499 84.5281 274.411 84.4726 274.34C84.4172 274.269 84.3389 274.22 84.2511 274.2V273.518H80.4547V274.191H80.4024C80.3512 274.191 80.3006 274.201 80.2533 274.221C80.2061 274.24 80.1632 274.269 80.1271 274.305C80.0909 274.341 80.0623 274.384 80.0428 274.432C80.0233 274.479 80.0133 274.53 80.0133 274.581C80.0133 274.59 80.0137 274.6 80.0144 274.609C80.3648 278.589 79.2911 282.564 76.9846 285.826C76.8511 286.016 76.783 286.244 76.7903 286.476L77.2054 299.317C77.2154 299.603 77.3356 299.875 77.5409 300.075C77.7463 300.275 78.0209 300.388 78.3075 300.39H86.8943C87.1842 300.388 87.4617 300.272 87.6677 300.068C87.8736 299.864 87.9919 299.588 87.9971 299.298L88.1571 286.831C88.1618 286.373 88.0269 285.925 87.7704 285.546Z" fill="#3F3D56"/>
<path d="M86.5345 290.266H78.3412V294.363H86.5345V290.266Z" fill="white"/>
<path d="M132.551 239.734H124.973C124.841 239.734 124.711 239.76 124.589 239.811C124.467 239.861 124.356 239.935 124.263 240.029C124.169 240.122 124.095 240.233 124.045 240.355C123.994 240.476 123.969 240.607 123.969 240.739V244.065C123.969 244.332 124.074 244.587 124.263 244.776C124.451 244.964 124.707 245.07 124.973 245.07H126.229V250.054H131.295V245.07H132.551C132.818 245.07 133.073 244.964 133.262 244.776C133.45 244.587 133.556 244.332 133.556 244.065V240.739C133.556 240.607 133.53 240.476 133.479 240.355C133.429 240.233 133.355 240.122 133.262 240.029C133.168 239.935 133.058 239.861 132.936 239.811C132.814 239.76 132.683 239.734 132.551 239.734Z" fill="#3F3D56"/>
<path d="M140.142 270.176C135.5 263.385 133.128 255.299 133.364 247.077C133.368 246.887 133.306 246.702 133.189 246.553C133.072 246.403 132.907 246.299 132.722 246.257V244.82H124.719V246.237H124.609C124.501 246.237 124.394 246.259 124.294 246.3C124.195 246.342 124.104 246.402 124.028 246.479C123.952 246.555 123.892 246.645 123.851 246.745C123.809 246.845 123.788 246.952 123.788 247.06C123.788 247.079 123.789 247.099 123.791 247.119C124.421 255.909 122.292 263.791 117.403 270.766C117.122 271.166 116.978 271.648 116.994 272.137L117.869 299.208C117.89 299.811 118.143 300.384 118.576 300.805C119.009 301.227 119.588 301.465 120.192 301.469H138.295C138.906 301.464 139.491 301.221 139.925 300.791C140.359 300.361 140.608 299.779 140.62 299.168L140.957 272.885C140.967 271.92 140.682 270.975 140.142 270.176Z" fill="#3F3D56"/>
<path d="M137.276 279.168H121.519C121.286 279.168 121.055 279.219 120.843 279.316C120.631 279.413 120.443 279.555 120.291 279.732C120.139 279.909 120.027 280.117 119.963 280.342C119.899 280.566 119.885 280.801 119.92 281.032L122.301 296.509H135.974L138.866 281.084C138.91 280.85 138.901 280.61 138.842 280.38C138.782 280.15 138.672 279.936 138.521 279.753C138.369 279.57 138.179 279.423 137.963 279.322C137.748 279.22 137.514 279.168 137.276 279.168Z" fill="white"/>
<path d="M136.688 140.591H91.5158C94.674 123.516 93.9474 102.898 91.5158 80.7241H136.688C134.321 102.898 133.614 123.516 136.688 140.591Z" fill="#3F3D56"/>
<path d="M114.374 119.91C120.386 119.91 125.259 115.037 125.259 109.025C125.259 103.013 120.386 98.14 114.374 98.14C108.363 98.14 103.489 103.013 103.489 109.025C103.489 115.037 108.363 119.91 114.374 119.91Z" fill="white"/>
<path d="M95.3255 220.052H50.1529C53.3111 202.977 52.5845 182.358 50.1529 160.184H95.3255C92.9586 182.358 92.2513 202.977 95.3255 220.052Z" fill="#3F3D56"/>
<path d="M73.0113 199.37C79.0229 199.37 83.8963 194.497 83.8963 188.485C83.8963 182.474 79.0229 177.6 73.0113 177.6C66.9997 177.6 62.1263 182.474 62.1263 188.485C62.1263 194.497 66.9997 199.37 73.0113 199.37Z" fill="white"/>
<path d="M162.268 144.401H117.095C120.254 127.326 119.527 106.708 117.095 84.5338H162.268C159.901 106.708 159.194 127.326 162.268 144.401Z" fill="#3F3D56"/>
<path d="M139.954 123.72C145.965 123.72 150.839 118.846 150.839 112.835C150.839 106.823 145.965 101.95 139.954 101.95C133.942 101.95 129.069 106.823 129.069 112.835C129.069 118.846 133.942 123.72 139.954 123.72Z" fill="white"/>
<path d="M162.268 141.68H117.095C120.254 124.605 119.527 103.986 117.095 81.8125H162.268C159.901 103.986 159.194 124.605 162.268 141.68Z" fill="#3F3D56"/>
<path d="M139.954 120.998C145.965 120.998 150.839 116.125 150.839 110.113C150.839 104.102 145.965 99.2285 139.954 99.2285C133.942 99.2285 129.069 104.102 129.069 110.113C129.069 116.125 133.942 120.998 139.954 120.998Z" fill="white"/>
<path d="M162.268 144.401H117.095C120.254 127.326 119.527 106.708 117.095 84.5338H162.268C159.901 106.708 159.194 127.326 162.268 144.401Z" fill="#3F3D56"/>
<path d="M139.954 123.72C145.965 123.72 150.839 118.846 150.839 112.835C150.839 106.823 145.965 101.95 139.954 101.95C133.942 101.95 129.069 106.823 129.069 112.835C129.069 118.846 133.942 123.72 139.954 123.72Z" fill="white"/>
<path d="M172.609 137.326H24.5732V153.653H172.609V137.326Z" fill="#E6E6E6"/>
<path d="M172.609 218.419H24.5732V234.746H172.609V218.419Z" fill="#E6E6E6"/>
<path d="M172.609 299.512H24.5732V315.839H172.609V299.512Z" fill="#E6E6E6"/>
<path d="M430.123 365.751L393.243 339.667C405.681 327.55 416.994 310.297 427.813 290.789L464.693 316.874C449.957 333.611 437.473 350.036 430.123 365.751Z" fill="#FC8018"/>
<path d="M430.133 337.98C436.145 337.98 441.018 333.106 441.018 327.095C441.018 321.083 436.145 316.21 430.133 316.21C424.121 316.21 419.248 321.083 419.248 327.095C419.248 333.106 424.121 337.98 430.133 337.98Z" fill="white"/>
<path d="M252.217 246.72H248.169C248.026 246.72 247.89 246.776 247.789 246.877C247.688 246.978 247.632 247.114 247.632 247.257V249.034C247.632 249.104 247.646 249.174 247.673 249.239C247.7 249.304 247.739 249.363 247.789 249.413C247.839 249.463 247.898 249.502 247.963 249.529C248.028 249.556 248.098 249.57 248.169 249.57H248.84V252.233H251.546V249.57H252.217C252.359 249.57 252.496 249.514 252.596 249.413C252.697 249.312 252.754 249.176 252.754 249.034V247.257C252.754 247.114 252.697 246.978 252.596 246.877C252.496 246.776 252.359 246.72 252.217 246.72Z" fill="#E6E6E6"/>
<path d="M256.272 262.982C253.792 259.354 252.525 255.035 252.651 250.642C252.653 250.541 252.62 250.442 252.558 250.362C252.495 250.282 252.407 250.227 252.308 250.204V249.437H248.033V250.194H247.974C247.916 250.194 247.859 250.205 247.806 250.227C247.753 250.249 247.705 250.282 247.664 250.323C247.623 250.363 247.591 250.412 247.569 250.465C247.547 250.518 247.536 250.575 247.536 250.633C247.536 250.644 247.536 250.654 247.537 250.665C247.932 255.147 246.722 259.623 244.125 263.297C243.974 263.511 243.898 263.768 243.906 264.03L244.373 278.491C244.385 278.814 244.52 279.12 244.751 279.345C244.983 279.57 245.292 279.697 245.615 279.699H255.285C255.612 279.697 255.924 279.567 256.156 279.337C256.388 279.107 256.521 278.796 256.527 278.47L256.707 264.429C256.713 263.914 256.561 263.409 256.272 262.982Z" fill="#FC8018"/>
<path opacity="0.2" d="M251.373 247.299C251.373 247.606 251.251 247.9 251.034 248.117C250.817 248.335 250.522 248.457 250.215 248.457C249.908 248.457 249.613 248.335 249.396 248.117C249.179 247.9 249.057 247.606 249.057 247.299" fill="black"/>
<path d="M254.388 265.768H246.224V271.211H254.388V265.768Z" fill="white"/>
<path d="M380.327 303.215H372.749C372.483 303.215 372.227 303.32 372.039 303.509C371.85 303.697 371.745 303.953 371.745 304.219V307.546C371.745 307.812 371.85 308.068 372.039 308.256C372.227 308.444 372.483 308.55 372.749 308.55H374.005V313.534H379.072V308.55H380.327C380.594 308.55 380.849 308.444 381.038 308.256C381.226 308.068 381.332 307.812 381.332 307.546V304.219C381.332 303.953 381.226 303.697 381.038 303.509C380.849 303.32 380.594 303.215 380.327 303.215Z" fill="#E6E6E6"/>
<path d="M387.918 333.656C383.277 326.865 380.904 318.78 381.14 310.558C381.144 310.368 381.082 310.182 380.965 310.033C380.849 309.884 380.684 309.779 380.498 309.738V308.3H372.495V309.718H372.385C372.277 309.718 372.17 309.739 372.07 309.78C371.971 309.822 371.88 309.883 371.804 309.959C371.728 310.035 371.668 310.126 371.627 310.226C371.585 310.325 371.564 310.432 371.565 310.54C371.565 310.56 371.565 310.58 371.567 310.6C372.197 319.389 370.068 327.271 365.179 334.246C364.898 334.647 364.754 335.128 364.77 335.617L365.645 362.688C365.666 363.292 365.919 363.864 366.352 364.286C366.785 364.707 367.364 364.945 367.968 364.95H386.071C386.682 364.945 387.267 364.701 387.701 364.271C388.135 363.842 388.385 363.259 388.396 362.648L388.733 336.365C388.743 335.4 388.458 334.455 387.918 333.656Z" fill="#FC8018"/>
<path opacity="0.2" d="M378.748 304.298C378.748 304.873 378.519 305.425 378.113 305.831C377.706 306.238 377.155 306.466 376.58 306.466C376.005 306.466 375.454 306.238 375.047 305.831C374.641 305.425 374.412 304.873 374.412 304.298" fill="black"/>
<path d="M385.052 342.648H369.295C369.062 342.648 368.831 342.699 368.619 342.796C368.407 342.894 368.219 343.036 368.067 343.213C367.915 343.39 367.804 343.598 367.74 343.822C367.675 344.046 367.661 344.282 367.696 344.512L370.077 359.989H383.75L386.642 344.564C386.686 344.331 386.678 344.09 386.618 343.86C386.558 343.63 386.449 343.416 386.297 343.233C386.145 343.05 385.955 342.903 385.74 342.802C385.524 342.701 385.29 342.648 385.052 342.648Z" fill="white"/>
<path d="M358.706 365.709H313.533C316.691 348.634 315.965 328.015 313.533 305.842H358.706C356.339 328.015 355.632 348.634 358.706 365.709Z" fill="#FC8018"/>
<path d="M336.392 345.027C342.403 345.027 347.277 340.154 347.277 334.143C347.277 328.131 342.403 323.258 336.392 323.258C330.38 323.258 325.507 328.131 325.507 334.143C325.507 340.154 330.38 345.027 336.392 345.027Z" fill="white"/>
<path d="M173.939 177.298L184.08 176.376L190.533 160.704L179.01 154.251L173.939 177.298Z" fill="#FFB8B8"/>
<path d="M267.006 220.322C267.343 219.482 267.475 218.572 267.392 217.67C267.309 216.768 267.013 215.899 266.528 215.133C266.043 214.368 265.383 213.729 264.602 213.269C263.822 212.809 262.943 212.541 262.039 212.487L246.294 211.548L243.975 219.257L260.184 223.708C261.539 224.08 262.983 223.941 264.241 223.316C265.499 222.692 266.483 221.626 267.006 220.322Z" fill="#FFB8B8"/>
<path d="M250.099 223.838L249.926 209.372L214.952 203.792L188.009 172.891C186.607 171.283 184.67 170.238 182.557 169.949C180.443 169.66 178.297 170.147 176.515 171.319C175.436 172.029 174.526 172.967 173.85 174.067C173.173 175.167 172.747 176.403 172.6 177.686C172.453 178.969 172.591 180.269 173.002 181.493C173.413 182.717 174.087 183.837 174.979 184.771L197.206 212.126L250.099 223.838Z" fill="#575A89"/>
<path d="M166.103 386.569H175.322L198.188 283.184L221.878 315.122L235.706 384.265H244.464L242.621 310.052L211.737 230.768H181.314C173 245.814 166.479 261.324 173.939 277.324L166.103 386.569Z" fill="#2F2E41"/>
<path d="M230.055 392.849C229.953 393.175 229.922 393.519 229.963 393.859C230.005 394.198 230.118 394.524 230.295 394.816C230.473 395.108 230.711 395.359 230.993 395.552C231.275 395.745 231.594 395.876 231.931 395.936L254.49 399.939C255.381 400.102 256.302 399.933 257.077 399.465C257.853 398.996 258.43 398.26 258.701 397.395C258.964 396.568 258.927 395.676 258.597 394.874C258.267 394.071 257.665 393.411 256.897 393.009C251.936 390.462 247.667 386.751 244.456 382.193C241.976 384.502 239.205 384.284 236.262 382.583L233.141 382.973L230.055 392.849Z" fill="#2F2E41"/>
<path d="M161.834 392.849C161.732 393.175 161.701 393.519 161.743 393.859C161.784 394.198 161.897 394.524 162.075 394.816C162.252 395.108 162.49 395.359 162.772 395.552C163.054 395.745 163.374 395.876 163.71 395.936L186.269 399.939C187.161 400.102 188.081 399.933 188.857 399.465C189.632 398.996 190.21 398.26 190.48 397.395C190.743 396.568 190.706 395.676 190.376 394.874C190.046 394.071 189.444 393.411 188.676 393.009C183.716 390.462 179.447 386.751 176.235 382.193C173.756 384.502 170.984 384.284 168.042 382.583L164.921 382.973L161.834 392.849Z" fill="#2F2E41"/>
<path d="M190.764 166.466C197.892 166.466 203.67 160.687 203.67 153.559C203.67 146.431 197.892 140.653 190.764 140.653C183.636 140.653 177.857 146.431 177.857 153.559C177.857 160.687 183.636 166.466 190.764 166.466Z" fill="#FFB8B8"/>
<path d="M179.24 234.226L212.889 233.304L203.007 202.202C209.148 192.357 202.968 182.522 194.221 172.689L187.306 168.079L176.244 167.157C171.454 172.283 168.833 179.062 168.93 186.077C169.149 201.097 171.809 217.448 179.24 234.226Z" fill="#575A89"/>
<path d="M256.551 255.161C257.192 254.52 257.671 253.736 257.95 252.874C258.228 252.012 258.298 251.096 258.153 250.202C258.008 249.307 257.653 248.46 257.116 247.73C256.58 247 255.877 246.408 255.067 246.003L240.961 238.945L235.797 245.121L248.947 255.59C250.046 256.465 251.429 256.904 252.831 256.825C254.233 256.746 255.557 256.153 256.551 255.161Z" fill="#FFB8B8"/>
<path d="M239.624 251.742L245.156 238.374L215.197 219.485L202.583 180.477C201.926 178.447 200.557 176.724 198.727 175.627C196.898 174.53 194.733 174.133 192.633 174.51C191.362 174.738 190.157 175.243 189.102 175.988C188.047 176.733 187.169 177.701 186.53 178.823C185.89 179.945 185.505 181.194 185.401 182.482C185.297 183.769 185.477 185.063 185.929 186.273L195.604 220.167L239.624 251.742Z" fill="#575A89"/>
<path d="M169.56 148.489C169.56 153.511 172.821 161.288 176.935 164.622C179.703 166.865 183.361 166.771 184.771 163.7C186.218 160.55 191.205 153.146 199.983 148.489C211.684 142.28 195.833 131.658 184.771 133.277C176.459 134.495 169.56 140.088 169.56 148.489Z" fill="#2F2E41"/>
<path d="M177.396 141.575C182.488 141.575 186.615 137.447 186.615 132.356C186.615 127.264 182.488 123.137 177.396 123.137C172.305 123.137 168.177 127.264 168.177 132.356C168.177 137.447 172.305 141.575 177.396 141.575Z" fill="#2F2E41"/>
<path d="M187.998 129.129C187.997 126.805 187.118 124.567 185.536 122.864C183.955 121.16 181.788 120.118 179.47 119.945C179.699 119.928 179.928 119.91 180.162 119.91C182.607 119.91 184.952 120.881 186.681 122.61C188.409 124.339 189.381 126.684 189.381 129.129C189.381 131.574 188.409 133.919 186.681 135.648C184.952 137.377 182.607 138.348 180.162 138.348C179.928 138.348 179.699 138.33 179.47 138.313C181.788 138.14 183.955 137.097 185.536 135.394C187.118 133.691 187.997 131.453 187.998 129.129Z" fill="#2F2E41"/>
<path d="M190.994 158.169C192.14 158.169 193.068 156.93 193.068 155.403C193.068 153.876 192.14 152.637 190.994 152.637C189.849 152.637 188.92 153.876 188.92 155.403C188.92 156.93 189.849 158.169 190.994 158.169Z" fill="#FFB8B8"/>
<path d="M452.198 369.663H308.687L278.297 226.001H252.361V219.555H283.522L313.912 363.216H452.198V369.663Z" fill="#3F3D56"/>
<path d="M329.717 395.908C337.346 395.908 343.531 389.724 343.531 382.095C343.531 374.466 337.346 368.281 329.717 368.281C322.088 368.281 315.904 374.466 315.904 382.095C315.904 389.724 322.088 395.908 329.717 395.908Z" fill="#3F3D56"/>
<path d="M432.859 395.908C440.488 395.908 446.672 389.724 446.672 382.095C446.672 374.466 440.488 368.281 432.859 368.281C425.23 368.281 419.045 374.466 419.045 382.095C419.045 389.724 425.23 395.908 432.859 395.908Z" fill="#3F3D56"/>
<path d="M449.581 366.627H309.953L285.317 244.88H472.701C473.657 244.88 474.602 245.087 475.47 245.487C476.339 245.887 477.11 246.471 477.731 247.197C478.353 247.924 478.81 248.776 479.07 249.696C479.331 250.616 479.389 251.582 479.241 252.527L456.12 361.035C455.882 362.596 455.09 364.02 453.89 365.046C452.69 366.073 451.16 366.634 449.581 366.627ZM311.469 364.785H449.581C450.721 364.79 451.825 364.385 452.691 363.644C453.557 362.903 454.128 361.876 454.3 360.749L477.42 252.241C477.528 251.559 477.486 250.862 477.298 250.198C477.11 249.534 476.78 248.918 476.332 248.394C475.883 247.869 475.326 247.448 474.7 247.16C474.073 246.871 473.391 246.721 472.701 246.721H287.552L311.469 364.785Z" fill="#3F3D56"/>
<path d="M337.097 366.237L320.963 245.951L322.78 245.65L338.914 365.937L337.097 366.237Z" fill="#3F3D56"/>
<path d="M426.807 365.314L424.989 365.019L440.651 245.653L442.47 245.948L426.807 365.314Z" fill="#3F3D56"/>
<path d="M384.065 245.801H382.223V366.087H384.065V245.801Z" fill="#3F3D56"/>
<path d="M294.725 278.032L294.721 279.874L473.006 280.306L473.01 278.464L294.725 278.032Z" fill="#3F3D56"/>
<path d="M460.429 334.928L303.802 335.999L303.814 337.84L460.442 336.77L460.429 334.928Z" fill="#3F3D56"/>
<path d="M255.124 227.382C260.718 227.382 265.254 224.909 265.254 221.857C265.254 218.805 260.718 216.332 255.124 216.332C249.529 216.332 244.994 218.805 244.994 221.857C244.994 224.909 249.529 227.382 255.124 227.382Z" fill="#3F3D56"/>
</g>
<defs>
<clipPath id="clip0_342:40">
<rect width="479.321" height="400" fill="white"/>
</clipPath>
</defs>
</svg>
